G04 Layer_Color=16711935*
%FSLAX24Y24*%
%MOIN*%
G70*
G01*
G75*
%ADD80C,0.0680*%
%ADD132C,0.1182*%
%ADD133O,0.0553X0.1025*%
%ADD134C,0.0830*%
%ADD135C,0.0867*%
%ADD136C,0.0710*%
%ADD137C,0.0080*%
%ADD138R,0.0710X0.0749*%
%ADD139R,0.0257X0.0749*%
%ADD140R,0.1015X0.0828*%
%ADD141R,0.0661X0.0907*%
G04:AMPARAMS|DCode=142|XSize=47.4mil|YSize=67.1mil|CornerRadius=0mil|HoleSize=0mil|Usage=FLASHONLY|Rotation=290.000|XOffset=0mil|YOffset=0mil|HoleType=Round|Shape=Rectangle|*
%AMROTATEDRECTD142*
4,1,4,-0.0396,0.0108,0.0234,0.0337,0.0396,-0.0108,-0.0234,-0.0337,-0.0396,0.0108,0.0*
%
%ADD142ROTATEDRECTD142*%

%ADD143P,0.0670X4X335.0*%
%ADD144R,0.0552X0.0218*%
G04:AMPARAMS|DCode=145|XSize=55.2mil|YSize=21.8mil|CornerRadius=7.4mil|HoleSize=0mil|Usage=FLASHONLY|Rotation=180.000|XOffset=0mil|YOffset=0mil|HoleType=Round|Shape=RoundedRectangle|*
%AMROUNDEDRECTD145*
21,1,0.0552,0.0069,0,0,180.0*
21,1,0.0404,0.0218,0,0,180.0*
1,1,0.0149,-0.0202,0.0034*
1,1,0.0149,0.0202,0.0034*
1,1,0.0149,0.0202,-0.0034*
1,1,0.0149,-0.0202,-0.0034*
%
%ADD145ROUNDEDRECTD145*%
%ADD146R,0.0749X0.0474*%
%ADD147R,0.0178X0.0296*%
%ADD148R,0.0749X0.0710*%
G36*
X30671Y8887D02*
X30219D01*
Y9713D01*
X30671D01*
Y8887D01*
D02*
G37*
G36*
X31281D02*
X30829D01*
Y9713D01*
X31281D01*
Y8887D01*
D02*
G37*
D80*
X28199Y10089D02*
D03*
X26466Y10457D02*
D03*
D132*
X15786Y29451D02*
D03*
X45283D02*
D03*
D133*
X28133D02*
D03*
X29133D02*
D03*
X30133D02*
D03*
X31133D02*
D03*
X32133D02*
D03*
X33133D02*
D03*
X34133D02*
D03*
X35133D02*
D03*
X36133D02*
D03*
X37133D02*
D03*
X38133D02*
D03*
X39133D02*
D03*
X40133D02*
D03*
X41133D02*
D03*
X42133D02*
D03*
X43133D02*
D03*
D134*
X28885Y10949D02*
D03*
X26189Y11522D02*
D03*
D135*
X35944Y10653D02*
D03*
X32756Y10147D02*
D03*
D136*
X34350Y10400D02*
D03*
X35128Y10523D02*
D03*
X33572Y10277D02*
D03*
D137*
X16000Y37000D02*
D03*
X45000D02*
D03*
X23000Y13000D02*
D03*
X38000D02*
D03*
D138*
X27750Y12399D02*
D03*
X26924D02*
D03*
X26097D02*
D03*
Y14053D02*
D03*
X26924D02*
D03*
X27750D02*
D03*
X35269Y14058D02*
D03*
X34442D02*
D03*
X33615D02*
D03*
Y12405D02*
D03*
X34442D02*
D03*
X35269D02*
D03*
D139*
X31262Y10402D02*
D03*
X30238D02*
D03*
X31006D02*
D03*
X30750D02*
D03*
X30494D02*
D03*
D140*
X29589Y9300D02*
D03*
X31911D02*
D03*
D141*
X29766Y10206D02*
D03*
X31734D02*
D03*
D142*
X38258Y10769D02*
D03*
X36963Y10298D02*
D03*
D143*
X37550Y10700D02*
D03*
D144*
X44100Y40056D02*
D03*
D145*
Y39800D02*
D03*
Y39544D02*
D03*
X43509D02*
D03*
Y39800D02*
D03*
Y40056D02*
D03*
D146*
X39998Y43407D02*
D03*
D147*
X40294Y43870D02*
D03*
X40097D02*
D03*
X39900D02*
D03*
X39703D02*
D03*
Y42945D02*
D03*
X39900D02*
D03*
X40097D02*
D03*
X40294D02*
D03*
D148*
X28196Y35037D02*
D03*
Y34210D02*
D03*
Y33383D02*
D03*
X29850D02*
D03*
Y34210D02*
D03*
Y35037D02*
D03*
X37516Y34504D02*
D03*
Y33678D02*
D03*
Y32851D02*
D03*
X35862D02*
D03*
Y33678D02*
D03*
Y34504D02*
D03*
X43130Y33307D02*
D03*
Y32480D02*
D03*
Y31654D02*
D03*
X44783D02*
D03*
Y32480D02*
D03*
Y33307D02*
D03*
X17579Y33337D02*
D03*
Y32510D02*
D03*
Y31683D02*
D03*
X15925D02*
D03*
Y32510D02*
D03*
Y33337D02*
D03*
X29915Y45015D02*
D03*
Y44189D02*
D03*
Y43362D02*
D03*
X31568D02*
D03*
Y44189D02*
D03*
Y45015D02*
D03*
M02*
