G04 Layer_Physical_Order=1*
G04 Layer_Color=255*
%FSLAX24Y24*%
%MOIN*%
G70*
G01*
G75*
%ADD10R,0.0866X0.0236*%
%ADD11C,0.0600*%
%ADD12R,0.0236X0.0197*%
%ADD13R,0.0315X0.0315*%
%ADD14R,0.0472X0.0472*%
%ADD15R,0.0630X0.0591*%
%ADD16R,0.0197X0.0236*%
%ADD17R,0.0216X0.0472*%
%ADD18R,0.0433X0.0394*%
%ADD19R,0.0180X0.0300*%
%ADD20R,0.2953X0.0709*%
%ADD21R,0.0394X0.0433*%
%ADD22R,0.0315X0.0394*%
%ADD23R,0.0300X0.0180*%
%ADD24R,0.1339X0.0630*%
%ADD25R,0.1811X0.0394*%
%ADD26R,0.0287X0.0118*%
%ADD27R,0.0118X0.0287*%
%ADD28R,0.0984X0.0984*%
%ADD29R,0.0945X0.0630*%
%ADD30R,0.0335X0.0138*%
%ADD31R,0.0138X0.0335*%
%ADD32R,0.1063X0.1063*%
%ADD33R,0.0610X0.0098*%
%ADD34R,0.1181X0.1984*%
%ADD35R,0.0531X0.0177*%
%ADD36R,0.0531X0.0098*%
%ADD37R,0.1280X0.0847*%
%ADD38R,0.0374X0.0847*%
%ADD39R,0.0500X0.0250*%
G04:AMPARAMS|DCode=40|XSize=27.6mil|YSize=11mil|CornerRadius=2.8mil|HoleSize=0mil|Usage=FLASHONLY|Rotation=0.000|XOffset=0mil|YOffset=0mil|HoleType=Round|Shape=RoundedRectangle|*
%AMROUNDEDRECTD40*
21,1,0.0276,0.0055,0,0,0.0*
21,1,0.0221,0.0110,0,0,0.0*
1,1,0.0055,0.0110,-0.0028*
1,1,0.0055,-0.0110,-0.0028*
1,1,0.0055,-0.0110,0.0028*
1,1,0.0055,0.0110,0.0028*
%
%ADD40ROUNDEDRECTD40*%
%ADD41R,0.0276X0.0110*%
G04:AMPARAMS|DCode=42|XSize=11mil|YSize=27.6mil|CornerRadius=2.8mil|HoleSize=0mil|Usage=FLASHONLY|Rotation=0.000|XOffset=0mil|YOffset=0mil|HoleType=Round|Shape=RoundedRectangle|*
%AMROUNDEDRECTD42*
21,1,0.0110,0.0221,0,0,0.0*
21,1,0.0055,0.0276,0,0,0.0*
1,1,0.0055,0.0028,-0.0110*
1,1,0.0055,-0.0028,-0.0110*
1,1,0.0055,-0.0028,0.0110*
1,1,0.0055,0.0028,0.0110*
%
%ADD42ROUNDEDRECTD42*%
%ADD43R,0.0110X0.0276*%
%ADD44R,0.1260X0.1260*%
%ADD45R,0.0394X0.0551*%
%ADD46R,0.0787X0.0315*%
G04:AMPARAMS|DCode=47|XSize=31.5mil|YSize=31.5mil|CornerRadius=15.8mil|HoleSize=0mil|Usage=FLASHONLY|Rotation=90.000|XOffset=0mil|YOffset=0mil|HoleType=Round|Shape=RoundedRectangle|*
%AMROUNDEDRECTD47*
21,1,0.0315,0.0000,0,0,90.0*
21,1,0.0000,0.0315,0,0,90.0*
1,1,0.0315,0.0000,0.0000*
1,1,0.0315,0.0000,0.0000*
1,1,0.0315,0.0000,0.0000*
1,1,0.0315,0.0000,0.0000*
%
%ADD47ROUNDEDRECTD47*%
G04:AMPARAMS|DCode=48|XSize=31.5mil|YSize=31.5mil|CornerRadius=15.8mil|HoleSize=0mil|Usage=FLASHONLY|Rotation=180.000|XOffset=0mil|YOffset=0mil|HoleType=Round|Shape=RoundedRectangle|*
%AMROUNDEDRECTD48*
21,1,0.0315,0.0000,0,0,180.0*
21,1,0.0000,0.0315,0,0,180.0*
1,1,0.0315,0.0000,0.0000*
1,1,0.0315,0.0000,0.0000*
1,1,0.0315,0.0000,0.0000*
1,1,0.0315,0.0000,0.0000*
%
%ADD48ROUNDEDRECTD48*%
G04:AMPARAMS|DCode=49|XSize=35.4mil|YSize=65mil|CornerRadius=17.7mil|HoleSize=0mil|Usage=FLASHONLY|Rotation=270.000|XOffset=0mil|YOffset=0mil|HoleType=Round|Shape=RoundedRectangle|*
%AMROUNDEDRECTD49*
21,1,0.0354,0.0296,0,0,270.0*
21,1,0.0000,0.0650,0,0,270.0*
1,1,0.0354,-0.0148,0.0000*
1,1,0.0354,-0.0148,0.0000*
1,1,0.0354,0.0148,0.0000*
1,1,0.0354,0.0148,0.0000*
%
%ADD49ROUNDEDRECTD49*%
G04:AMPARAMS|DCode=50|XSize=35.4mil|YSize=65mil|CornerRadius=17.7mil|HoleSize=0mil|Usage=FLASHONLY|Rotation=0.000|XOffset=0mil|YOffset=0mil|HoleType=Round|Shape=RoundedRectangle|*
%AMROUNDEDRECTD50*
21,1,0.0354,0.0296,0,0,0.0*
21,1,0.0000,0.0650,0,0,0.0*
1,1,0.0354,0.0000,-0.0148*
1,1,0.0354,0.0000,-0.0148*
1,1,0.0354,0.0000,0.0148*
1,1,0.0354,0.0000,0.0148*
%
%ADD50ROUNDEDRECTD50*%
%ADD51C,0.0100*%
%ADD52C,0.0250*%
%ADD53C,0.0200*%
%ADD54C,0.0350*%
%ADD55C,0.0060*%
%ADD56C,0.0120*%
%ADD57C,0.0080*%
%ADD58C,0.0098*%
%ADD59C,0.0400*%
%ADD60C,0.1102*%
%ADD61O,0.0473X0.0945*%
%ADD62C,0.0750*%
%ADD63C,0.0787*%
%ADD64C,0.0630*%
%ADD65C,0.0240*%
%ADD66C,0.0500*%
G36*
X23900Y24230D02*
X23750Y24080D01*
Y23450D01*
X23630D01*
X23620Y23440D01*
X23610Y23450D01*
Y24380D01*
X23600Y24390D01*
X23610Y24400D01*
X23900D01*
Y24230D01*
D02*
G37*
G36*
X23240Y23620D02*
X22760D01*
X22690Y23550D01*
Y23320D01*
X22160D01*
X22020Y23180D01*
Y23040D01*
X21090D01*
X21080Y23030D01*
X20960Y23150D01*
X20250D01*
Y24410D01*
X23240D01*
Y23620D01*
D02*
G37*
G36*
X20880Y22940D02*
X22690D01*
Y22550D01*
X20950D01*
X20770Y22300D01*
X17890D01*
Y23000D01*
X20820D01*
X20880Y22940D01*
D02*
G37*
G36*
X31400Y26900D02*
X30950Y26450D01*
Y24650D01*
X30550D01*
Y26450D01*
X30100Y26900D01*
Y27750D01*
X31400D01*
Y26900D01*
D02*
G37*
G36*
X31800Y24250D02*
X31500D01*
Y24700D01*
X31800D01*
Y24250D01*
D02*
G37*
G36*
X30000D02*
X29700D01*
Y24700D01*
X30000D01*
Y24250D01*
D02*
G37*
G36*
X26150Y18750D02*
X25800Y18750D01*
X25750Y18700D01*
Y18350D01*
X25250D01*
Y18700D01*
X25150Y18800D01*
X24400D01*
Y19150D01*
X25850D01*
X25875Y19175D01*
X26125D01*
X26150Y19200D01*
Y18750D01*
D02*
G37*
G36*
X26950Y18500D02*
X26850Y18400D01*
X26700D01*
X26450Y18150D01*
Y17850D01*
X26150D01*
Y18250D01*
X26050Y18350D01*
X25850D01*
Y18600D01*
X26200D01*
X26400Y18800D01*
Y20350D01*
X26950D01*
Y18500D01*
D02*
G37*
G36*
X32794Y46250D02*
X32775Y46225D01*
X32749Y46162D01*
X32747Y46145D01*
X33000D01*
Y46045D01*
X32747D01*
X32749Y46028D01*
X32775Y45965D01*
X32816Y45911D01*
X32846Y45889D01*
Y45829D01*
X32816Y45806D01*
X32775Y45752D01*
X32749Y45690D01*
X32747Y45672D01*
X33000D01*
Y45573D01*
X32747D01*
X32749Y45555D01*
X32775Y45493D01*
X32816Y45439D01*
X32846Y45416D01*
Y45356D01*
X32816Y45334D01*
X32775Y45280D01*
X32749Y45217D01*
X32747Y45200D01*
X33000D01*
Y45150D01*
X33050D01*
Y44897D01*
X33067Y44899D01*
X33100Y44913D01*
X33150Y44880D01*
Y44455D01*
X33100Y44424D01*
X33050Y44434D01*
X32980Y44420D01*
X32920Y44380D01*
X32880Y44320D01*
X32866Y44250D01*
X32880Y44180D01*
X32920Y44120D01*
X32980Y44080D01*
X33050Y44066D01*
X33100Y44076D01*
X33150Y44045D01*
Y43746D01*
X33106Y43723D01*
X33085Y43737D01*
X33000Y43754D01*
X32915Y43737D01*
X32843Y43689D01*
X32795Y43617D01*
X32778Y43532D01*
X32795Y43447D01*
X32843Y43375D01*
X32915Y43327D01*
X33000Y43310D01*
X33085Y43327D01*
X33106Y43341D01*
X33150Y43318D01*
Y42746D01*
X33106Y42723D01*
X33085Y42737D01*
X33000Y42754D01*
X32915Y42737D01*
X32843Y42689D01*
X32795Y42617D01*
X32778Y42532D01*
X32795Y42447D01*
X32843Y42375D01*
X32915Y42327D01*
X33000Y42310D01*
X33085Y42327D01*
X33106Y42341D01*
X33150Y42318D01*
Y42176D01*
X33100Y42150D01*
X33070Y42170D01*
X33000Y42184D01*
X32930Y42170D01*
X32870Y42130D01*
X32830Y42070D01*
X32816Y42000D01*
X32830Y41930D01*
X32870Y41870D01*
X32908Y41845D01*
Y41732D01*
X32843Y41689D01*
X32795Y41617D01*
X32778Y41532D01*
X32795Y41447D01*
X32843Y41375D01*
X32915Y41327D01*
X33000Y41310D01*
X33085Y41327D01*
X33106Y41341D01*
X33150Y41318D01*
Y40746D01*
X33106Y40723D01*
X33085Y40737D01*
X33000Y40754D01*
X32915Y40737D01*
X32843Y40689D01*
X32795Y40617D01*
X32778Y40532D01*
X32794Y40455D01*
X32760Y40422D01*
X32700Y40434D01*
X32630Y40420D01*
X32570Y40380D01*
X32530Y40320D01*
X32516Y40250D01*
X32530Y40180D01*
X32570Y40120D01*
X32630Y40080D01*
X32700Y40066D01*
X32770Y40080D01*
X32830Y40120D01*
X32870Y40180D01*
X32884Y40250D01*
X32878Y40280D01*
X32923Y40325D01*
X33000Y40310D01*
X33085Y40327D01*
X33106Y40341D01*
X33150Y40318D01*
Y40076D01*
X33100Y40050D01*
X33070Y40070D01*
X33000Y40084D01*
X32930Y40070D01*
X32870Y40030D01*
X32830Y39970D01*
X32816Y39900D01*
X32830Y39830D01*
X32870Y39770D01*
X32873Y39769D01*
X32873Y39708D01*
X32843Y39689D01*
X32795Y39617D01*
X32778Y39532D01*
X32795Y39447D01*
X32843Y39375D01*
X32915Y39327D01*
X33000Y39310D01*
X33085Y39327D01*
X33106Y39341D01*
X33150Y39318D01*
Y39000D01*
X32800Y38800D01*
X32696D01*
X32669Y38831D01*
X32660Y38898D01*
X32634Y38961D01*
X32593Y39015D01*
X32539Y39056D01*
X32477Y39082D01*
X32459Y39084D01*
Y38831D01*
X32359D01*
Y39084D01*
X32342Y39082D01*
X32280Y39056D01*
X32226Y39015D01*
X32203Y38985D01*
X32143D01*
X32121Y39015D01*
X32067Y39056D01*
X32004Y39082D01*
X31987Y39084D01*
Y38831D01*
X31887D01*
Y39084D01*
X31870Y39082D01*
X31807Y39056D01*
X31753Y39015D01*
X31731Y38985D01*
X31671D01*
X31648Y39015D01*
X31594Y39056D01*
X31532Y39082D01*
X31515Y39084D01*
Y38831D01*
X31415D01*
Y39084D01*
X31397Y39082D01*
X31335Y39056D01*
X31281Y39015D01*
X31258Y38985D01*
X31198D01*
X31176Y39015D01*
X31122Y39056D01*
X31059Y39082D01*
X31042Y39084D01*
Y38831D01*
X30942D01*
Y39084D01*
X30925Y39082D01*
X30862Y39056D01*
X30808Y39015D01*
X30786Y38985D01*
X30726D01*
X30703Y39015D01*
X30650Y39056D01*
X30587Y39082D01*
X30570Y39084D01*
Y38831D01*
X30470D01*
Y39084D01*
X30452Y39082D01*
X30390Y39056D01*
X30336Y39015D01*
X30313Y38985D01*
X30253D01*
X30231Y39015D01*
X30177Y39056D01*
X30114Y39082D01*
X30097Y39084D01*
Y38831D01*
X29997D01*
Y39084D01*
X29980Y39082D01*
X29917Y39056D01*
X29864Y39015D01*
X29841Y38985D01*
X29781D01*
X29758Y39015D01*
X29705Y39056D01*
X29642Y39082D01*
X29625Y39084D01*
Y38831D01*
X29525D01*
Y39084D01*
X29508Y39082D01*
X29445Y39056D01*
X29391Y39015D01*
X29369Y38985D01*
X29309D01*
X29286Y39015D01*
X29232Y39056D01*
X29170Y39082D01*
X29152Y39084D01*
Y38831D01*
X29052D01*
Y39084D01*
X29035Y39082D01*
X28973Y39056D01*
X28919Y39015D01*
X28891Y38978D01*
X28833Y38975D01*
X28830Y38980D01*
X28770Y39020D01*
X28700Y39034D01*
X28699Y39033D01*
X28669Y39078D01*
X28670Y39080D01*
X28684Y39150D01*
X28670Y39220D01*
X28630Y39280D01*
X28622Y39285D01*
X28623Y39345D01*
X28669Y39375D01*
X28717Y39447D01*
X28734Y39532D01*
X28717Y39617D01*
X28669Y39689D01*
X28597Y39737D01*
X28512Y39754D01*
X28427Y39737D01*
X28400Y39719D01*
X28350Y39746D01*
Y40318D01*
X28400Y40345D01*
X28427Y40327D01*
X28512Y40310D01*
X28597Y40327D01*
X28669Y40375D01*
X28717Y40447D01*
X28734Y40532D01*
X28717Y40617D01*
X28669Y40689D01*
X28597Y40737D01*
X28512Y40754D01*
X28427Y40737D01*
X28400Y40719D01*
X28350Y40746D01*
Y41318D01*
X28400Y41345D01*
X28427Y41327D01*
X28512Y41310D01*
X28597Y41327D01*
X28669Y41375D01*
X28717Y41447D01*
X28734Y41532D01*
X28717Y41617D01*
X28669Y41689D01*
X28611Y41728D01*
X28617Y41780D01*
X28620Y41780D01*
X28680Y41820D01*
X28720Y41880D01*
X28734Y41950D01*
X28720Y42020D01*
X28680Y42080D01*
X28620Y42120D01*
X28550Y42134D01*
X28480Y42120D01*
X28420Y42080D01*
X28400Y42049D01*
X28350Y42065D01*
Y42318D01*
X28400Y42345D01*
X28427Y42327D01*
X28512Y42310D01*
X28597Y42327D01*
X28669Y42375D01*
X28717Y42447D01*
X28734Y42532D01*
X28717Y42617D01*
X28669Y42689D01*
X28597Y42737D01*
X28512Y42754D01*
X28427Y42737D01*
X28400Y42719D01*
X28350Y42746D01*
Y43318D01*
X28400Y43345D01*
X28427Y43327D01*
X28512Y43310D01*
X28597Y43327D01*
X28669Y43375D01*
X28717Y43447D01*
X28734Y43532D01*
X28717Y43617D01*
X28669Y43689D01*
X28597Y43737D01*
X28512Y43754D01*
X28427Y43737D01*
X28400Y43719D01*
X28350Y43746D01*
Y44892D01*
X28400Y44918D01*
X28445Y44899D01*
X28462Y44897D01*
Y45150D01*
X28512D01*
Y45200D01*
X28765D01*
X28763Y45217D01*
X28737Y45280D01*
X28695Y45334D01*
X28666Y45356D01*
Y45416D01*
X28695Y45439D01*
X28737Y45493D01*
X28763Y45555D01*
X28765Y45573D01*
X28512D01*
Y45672D01*
X28765D01*
X28763Y45690D01*
X28737Y45752D01*
X28695Y45806D01*
X28666Y45829D01*
Y45889D01*
X28695Y45911D01*
X28737Y45965D01*
X28763Y46028D01*
X28765Y46045D01*
X28512D01*
Y46145D01*
X28765D01*
X28763Y46162D01*
X28737Y46225D01*
X28717Y46250D01*
X28742Y46300D01*
X28818D01*
X28843Y46272D01*
X28852Y46205D01*
X28877Y46142D01*
X28919Y46088D01*
X28973Y46047D01*
X29035Y46021D01*
X29052Y46019D01*
Y46272D01*
X29152D01*
Y46019D01*
X29170Y46021D01*
X29232Y46047D01*
X29286Y46088D01*
X29309Y46118D01*
X29369D01*
X29391Y46088D01*
X29445Y46047D01*
X29508Y46021D01*
X29525Y46019D01*
Y46272D01*
X29625D01*
Y46019D01*
X29642Y46021D01*
X29705Y46047D01*
X29758Y46088D01*
X29781Y46118D01*
X29841D01*
X29864Y46088D01*
X29917Y46047D01*
X29980Y46021D01*
X29997Y46019D01*
Y46272D01*
X30097D01*
Y46019D01*
X30114Y46021D01*
X30177Y46047D01*
X30231Y46088D01*
X30253Y46118D01*
X30313D01*
X30336Y46088D01*
X30390Y46047D01*
X30452Y46021D01*
X30470Y46019D01*
Y46272D01*
X30570D01*
Y46019D01*
X30587Y46021D01*
X30650Y46047D01*
X30703Y46088D01*
X30726Y46118D01*
X30786D01*
X30808Y46088D01*
X30862Y46047D01*
X30925Y46021D01*
X30942Y46019D01*
Y46272D01*
X31042D01*
Y46019D01*
X31059Y46021D01*
X31122Y46047D01*
X31176Y46088D01*
X31198Y46118D01*
X31258D01*
X31281Y46088D01*
X31335Y46047D01*
X31397Y46021D01*
X31415Y46019D01*
Y46272D01*
X31515D01*
Y46019D01*
X31532Y46021D01*
X31594Y46047D01*
X31648Y46088D01*
X31671Y46118D01*
X31731D01*
X31753Y46088D01*
X31807Y46047D01*
X31870Y46021D01*
X31887Y46019D01*
Y46272D01*
X31987D01*
Y46019D01*
X32004Y46021D01*
X32067Y46047D01*
X32121Y46088D01*
X32143Y46118D01*
X32203D01*
X32226Y46088D01*
X32280Y46047D01*
X32342Y46021D01*
X32359Y46019D01*
Y46272D01*
X32459D01*
Y46019D01*
X32477Y46021D01*
X32539Y46047D01*
X32593Y46088D01*
X32634Y46142D01*
X32660Y46205D01*
X32669Y46272D01*
X32694Y46300D01*
X32770D01*
X32794Y46250D01*
D02*
G37*
G36*
X23500Y22470D02*
X23510Y22460D01*
Y21040D01*
X21240D01*
X21080Y21200D01*
Y22470D01*
X22850D01*
X22860Y22480D01*
Y22860D01*
X23500Y22470D01*
D02*
G37*
G36*
X27550Y20850D02*
X26400D01*
Y21700D01*
X27550D01*
Y20850D01*
D02*
G37*
G36*
X23750Y22270D02*
X24980D01*
X25000Y22250D01*
Y21500D01*
X24350D01*
X24250Y21400D01*
Y20269D01*
X24100Y20119D01*
Y18750D01*
X24250Y18600D01*
X25150D01*
Y18350D01*
X24950D01*
X24850Y18250D01*
Y18050D01*
X24500D01*
X24450Y18100D01*
X23700D01*
X23600Y18200D01*
X23250Y18550D01*
Y20090D01*
X17820D01*
Y20800D01*
X20780D01*
X20820Y20760D01*
X23610D01*
Y22390D01*
X23750D01*
Y22270D01*
D02*
G37*
%LPC*%
G36*
X31615Y41793D02*
X31412D01*
Y41590D01*
X31429Y41592D01*
X31492Y41618D01*
X31546Y41659D01*
X31587Y41713D01*
X31613Y41776D01*
X31615Y41793D01*
D02*
G37*
G36*
X32300Y41764D02*
X32264Y41757D01*
X32191Y41709D01*
X32143Y41636D01*
X32136Y41600D01*
X32300D01*
Y41764D01*
D02*
G37*
G36*
X30403Y41793D02*
X30200D01*
Y41590D01*
X30217Y41592D01*
X30279Y41618D01*
X30333Y41659D01*
X30375Y41713D01*
X30400Y41776D01*
X30403Y41793D01*
D02*
G37*
G36*
X31009D02*
X30806D01*
Y41590D01*
X30823Y41592D01*
X30886Y41618D01*
X30940Y41659D01*
X30981Y41713D01*
X31007Y41776D01*
X31009Y41793D01*
D02*
G37*
G36*
X29364Y42050D02*
X29200D01*
Y41886D01*
X29236Y41893D01*
X29309Y41941D01*
X29357Y42014D01*
X29364Y42050D01*
D02*
G37*
G36*
X30100Y42096D02*
X30082Y42094D01*
X30020Y42068D01*
X29966Y42027D01*
X29925Y41973D01*
X29899Y41910D01*
X29896Y41893D01*
X30100D01*
Y42096D01*
D02*
G37*
G36*
X32400Y41764D02*
Y41600D01*
X32564D01*
X32557Y41636D01*
X32509Y41709D01*
X32436Y41757D01*
X32400Y41764D01*
D02*
G37*
G36*
X29100Y42050D02*
X28936D01*
X28943Y42014D01*
X28991Y41941D01*
X29064Y41893D01*
X29100Y41886D01*
Y42050D01*
D02*
G37*
G36*
X31412Y41387D02*
Y41184D01*
X31615D01*
X31613Y41202D01*
X31587Y41264D01*
X31546Y41318D01*
X31492Y41359D01*
X31429Y41385D01*
X31412Y41387D01*
D02*
G37*
G36*
X32300Y41500D02*
X32136D01*
X32143Y41464D01*
X32191Y41391D01*
X32264Y41343D01*
X32300Y41336D01*
Y41500D01*
D02*
G37*
G36*
X30200Y41387D02*
Y41184D01*
X30403D01*
X30400Y41202D01*
X30375Y41264D01*
X30333Y41318D01*
X30279Y41359D01*
X30217Y41385D01*
X30200Y41387D01*
D02*
G37*
G36*
X30806D02*
Y41184D01*
X31009D01*
X31007Y41202D01*
X30981Y41264D01*
X30940Y41318D01*
X30886Y41359D01*
X30823Y41385D01*
X30806Y41387D01*
D02*
G37*
G36*
X30100Y41793D02*
X29896D01*
X29899Y41776D01*
X29925Y41713D01*
X29966Y41659D01*
X30020Y41618D01*
X30082Y41592D01*
X30100Y41590D01*
Y41793D01*
D02*
G37*
G36*
X30706D02*
X30503D01*
X30505Y41776D01*
X30531Y41713D01*
X30572Y41659D01*
X30626Y41618D01*
X30689Y41592D01*
X30706Y41590D01*
Y41793D01*
D02*
G37*
G36*
X32564Y41500D02*
X32400D01*
Y41336D01*
X32436Y41343D01*
X32509Y41391D01*
X32557Y41464D01*
X32564Y41500D01*
D02*
G37*
G36*
X31312Y41793D02*
X31109D01*
X31111Y41776D01*
X31137Y41713D01*
X31179Y41659D01*
X31232Y41618D01*
X31295Y41592D01*
X31312Y41590D01*
Y41793D01*
D02*
G37*
G36*
X30100Y42502D02*
X29896D01*
X29899Y42484D01*
X29925Y42422D01*
X29966Y42368D01*
X30020Y42327D01*
X30082Y42301D01*
X30100Y42298D01*
Y42502D01*
D02*
G37*
G36*
X30706D02*
X30503D01*
X30505Y42484D01*
X30531Y42422D01*
X30572Y42368D01*
X30626Y42327D01*
X30689Y42301D01*
X30706Y42298D01*
Y42502D01*
D02*
G37*
G36*
X32564Y42400D02*
X32400D01*
Y42236D01*
X32436Y42243D01*
X32509Y42291D01*
X32557Y42364D01*
X32564Y42400D01*
D02*
G37*
G36*
X31312Y42502D02*
X31109D01*
X31111Y42484D01*
X31137Y42422D01*
X31179Y42368D01*
X31232Y42327D01*
X31295Y42301D01*
X31312Y42298D01*
Y42502D01*
D02*
G37*
G36*
X31615D02*
X31412D01*
Y42298D01*
X31429Y42301D01*
X31492Y42327D01*
X31546Y42368D01*
X31587Y42422D01*
X31613Y42484D01*
X31615Y42502D01*
D02*
G37*
G36*
X32300Y42664D02*
X32264Y42657D01*
X32191Y42609D01*
X32143Y42536D01*
X32136Y42500D01*
X32300D01*
Y42664D01*
D02*
G37*
G36*
X30403Y42502D02*
X30200D01*
Y42298D01*
X30217Y42301D01*
X30279Y42327D01*
X30333Y42368D01*
X30375Y42422D01*
X30400Y42484D01*
X30403Y42502D01*
D02*
G37*
G36*
X31009D02*
X30806D01*
Y42298D01*
X30823Y42301D01*
X30886Y42327D01*
X30940Y42368D01*
X30981Y42422D01*
X31007Y42484D01*
X31009Y42502D01*
D02*
G37*
G36*
X30200Y42096D02*
Y41893D01*
X30403D01*
X30400Y41910D01*
X30375Y41973D01*
X30333Y42027D01*
X30279Y42068D01*
X30217Y42094D01*
X30200Y42096D01*
D02*
G37*
G36*
X30806D02*
Y41893D01*
X31009D01*
X31007Y41910D01*
X30981Y41973D01*
X30940Y42027D01*
X30886Y42068D01*
X30823Y42094D01*
X30806Y42096D01*
D02*
G37*
G36*
X30706D02*
X30689Y42094D01*
X30626Y42068D01*
X30572Y42027D01*
X30531Y41973D01*
X30505Y41910D01*
X30503Y41893D01*
X30706D01*
Y42096D01*
D02*
G37*
G36*
X31312D02*
X31295Y42094D01*
X31232Y42068D01*
X31179Y42027D01*
X31137Y41973D01*
X31111Y41910D01*
X31109Y41893D01*
X31312D01*
Y42096D01*
D02*
G37*
G36*
X29200Y42314D02*
Y42150D01*
X29364D01*
X29357Y42186D01*
X29309Y42259D01*
X29236Y42307D01*
X29200Y42314D01*
D02*
G37*
G36*
X32300Y42400D02*
X32136D01*
X32143Y42364D01*
X32191Y42291D01*
X32264Y42243D01*
X32300Y42236D01*
Y42400D01*
D02*
G37*
G36*
X31412Y42096D02*
Y41893D01*
X31615D01*
X31613Y41910D01*
X31587Y41973D01*
X31546Y42027D01*
X31492Y42068D01*
X31429Y42094D01*
X31412Y42096D01*
D02*
G37*
G36*
X29100Y42314D02*
X29064Y42307D01*
X28991Y42259D01*
X28943Y42186D01*
X28936Y42150D01*
X29100D01*
Y42314D01*
D02*
G37*
G36*
X31312Y41387D02*
X31295Y41385D01*
X31232Y41359D01*
X31179Y41318D01*
X31137Y41264D01*
X31111Y41202D01*
X31109Y41184D01*
X31312D01*
Y41387D01*
D02*
G37*
G36*
X29050Y40000D02*
X28886D01*
X28893Y39964D01*
X28941Y39891D01*
X29014Y39843D01*
X29050Y39836D01*
Y40000D01*
D02*
G37*
G36*
X29314D02*
X29150D01*
Y39836D01*
X29186Y39843D01*
X29259Y39891D01*
X29307Y39964D01*
X29314Y40000D01*
D02*
G37*
G36*
X31050Y39950D02*
X30886D01*
X30893Y39914D01*
X30941Y39841D01*
X31014Y39793D01*
X31050Y39786D01*
Y39950D01*
D02*
G37*
G36*
X31314D02*
X31150D01*
Y39786D01*
X31186Y39793D01*
X31259Y39841D01*
X31307Y39914D01*
X31314Y39950D01*
D02*
G37*
G36*
X31050Y40214D02*
X31014Y40207D01*
X30941Y40159D01*
X30893Y40086D01*
X30886Y40050D01*
X31050D01*
Y40214D01*
D02*
G37*
G36*
X31150D02*
Y40050D01*
X31314D01*
X31307Y40086D01*
X31259Y40159D01*
X31186Y40207D01*
X31150Y40214D01*
D02*
G37*
G36*
X29950Y40000D02*
X29786D01*
X29793Y39964D01*
X29841Y39891D01*
X29914Y39843D01*
X29950Y39836D01*
Y40000D01*
D02*
G37*
G36*
X30214D02*
X30050D01*
Y39836D01*
X30086Y39843D01*
X30159Y39891D01*
X30207Y39964D01*
X30214Y40000D01*
D02*
G37*
G36*
X32250Y39450D02*
X32086D01*
X32093Y39414D01*
X32141Y39341D01*
X32214Y39293D01*
X32250Y39286D01*
Y39450D01*
D02*
G37*
G36*
X32514D02*
X32350D01*
Y39286D01*
X32386Y39293D01*
X32459Y39341D01*
X32507Y39414D01*
X32514Y39450D01*
D02*
G37*
G36*
X31600D02*
X31436D01*
X31443Y39414D01*
X31491Y39341D01*
X31564Y39293D01*
X31600Y39286D01*
Y39450D01*
D02*
G37*
G36*
X31864D02*
X31700D01*
Y39286D01*
X31736Y39293D01*
X31809Y39341D01*
X31857Y39414D01*
X31864Y39450D01*
D02*
G37*
G36*
X32250Y39714D02*
X32214Y39707D01*
X32141Y39659D01*
X32093Y39586D01*
X32086Y39550D01*
X32250D01*
Y39714D01*
D02*
G37*
G36*
X32350D02*
Y39550D01*
X32514D01*
X32507Y39586D01*
X32459Y39659D01*
X32386Y39707D01*
X32350Y39714D01*
D02*
G37*
G36*
X31600D02*
X31564Y39707D01*
X31491Y39659D01*
X31443Y39586D01*
X31436Y39550D01*
X31600D01*
Y39714D01*
D02*
G37*
G36*
X31700D02*
Y39550D01*
X31864D01*
X31857Y39586D01*
X31809Y39659D01*
X31736Y39707D01*
X31700Y39714D01*
D02*
G37*
G36*
X29100Y41050D02*
X28936D01*
X28943Y41014D01*
X28991Y40941D01*
X29064Y40893D01*
X29100Y40886D01*
Y41050D01*
D02*
G37*
G36*
X29364D02*
X29200D01*
Y40886D01*
X29236Y40893D01*
X29309Y40941D01*
X29357Y41014D01*
X29364Y41050D01*
D02*
G37*
G36*
X31009Y41084D02*
X30806D01*
Y40881D01*
X30823Y40883D01*
X30886Y40909D01*
X30940Y40951D01*
X30981Y41004D01*
X31007Y41067D01*
X31009Y41084D01*
D02*
G37*
G36*
X31615D02*
X31412D01*
Y40881D01*
X31429Y40883D01*
X31492Y40909D01*
X31546Y40951D01*
X31587Y41004D01*
X31613Y41067D01*
X31615Y41084D01*
D02*
G37*
G36*
X30100Y41387D02*
X30082Y41385D01*
X30020Y41359D01*
X29966Y41318D01*
X29925Y41264D01*
X29899Y41202D01*
X29896Y41184D01*
X30100D01*
Y41387D01*
D02*
G37*
G36*
X30706D02*
X30689Y41385D01*
X30626Y41359D01*
X30572Y41318D01*
X30531Y41264D01*
X30505Y41202D01*
X30503Y41184D01*
X30706D01*
Y41387D01*
D02*
G37*
G36*
X29100Y41314D02*
X29064Y41307D01*
X28991Y41259D01*
X28943Y41186D01*
X28936Y41150D01*
X29100D01*
Y41314D01*
D02*
G37*
G36*
X29200D02*
Y41150D01*
X29364D01*
X29357Y41186D01*
X29309Y41259D01*
X29236Y41307D01*
X29200Y41314D01*
D02*
G37*
G36*
X29950Y40264D02*
X29914Y40257D01*
X29841Y40209D01*
X29793Y40136D01*
X29786Y40100D01*
X29950D01*
Y40264D01*
D02*
G37*
G36*
X30050D02*
Y40100D01*
X30214D01*
X30207Y40136D01*
X30159Y40209D01*
X30086Y40257D01*
X30050Y40264D01*
D02*
G37*
G36*
X29050D02*
X29014Y40257D01*
X28941Y40209D01*
X28893Y40136D01*
X28886Y40100D01*
X29050D01*
Y40264D01*
D02*
G37*
G36*
X29150D02*
Y40100D01*
X29314D01*
X29307Y40136D01*
X29259Y40209D01*
X29186Y40257D01*
X29150Y40264D01*
D02*
G37*
G36*
X30706Y41084D02*
X30503D01*
X30505Y41067D01*
X30531Y41004D01*
X30572Y40951D01*
X30626Y40909D01*
X30689Y40883D01*
X30706Y40881D01*
Y41084D01*
D02*
G37*
G36*
X30403D02*
X30200D01*
Y40881D01*
X30217Y40883D01*
X30279Y40909D01*
X30333Y40951D01*
X30375Y41004D01*
X30400Y41067D01*
X30403Y41084D01*
D02*
G37*
G36*
X31312D02*
X31109D01*
X31111Y41067D01*
X31137Y41004D01*
X31179Y40951D01*
X31232Y40909D01*
X31295Y40883D01*
X31312Y40881D01*
Y41084D01*
D02*
G37*
G36*
X30100D02*
X29896D01*
X29899Y41067D01*
X29925Y41004D01*
X29966Y40951D01*
X30020Y40909D01*
X30082Y40883D01*
X30100Y40881D01*
Y41084D01*
D02*
G37*
G36*
X32400Y42664D02*
Y42500D01*
X32564D01*
X32557Y42536D01*
X32509Y42609D01*
X32436Y42657D01*
X32400Y42664D01*
D02*
G37*
G36*
X32150Y45184D02*
X32080Y45170D01*
X32020Y45130D01*
X31980Y45070D01*
X31966Y45000D01*
X31980Y44930D01*
X32020Y44870D01*
X32080Y44830D01*
X32150Y44816D01*
X32220Y44830D01*
X32280Y44870D01*
X32320Y44930D01*
X32334Y45000D01*
X32320Y45070D01*
X32280Y45130D01*
X32220Y45170D01*
X32150Y45184D01*
D02*
G37*
G36*
X32950Y45100D02*
X32747D01*
X32749Y45083D01*
X32775Y45020D01*
X32816Y44966D01*
X32870Y44925D01*
X32933Y44899D01*
X32950Y44897D01*
Y45100D01*
D02*
G37*
G36*
X30650Y44914D02*
X30614Y44907D01*
X30541Y44859D01*
X30493Y44786D01*
X30486Y44750D01*
X30650D01*
Y44914D01*
D02*
G37*
G36*
X30750D02*
Y44750D01*
X30914D01*
X30907Y44786D01*
X30859Y44859D01*
X30786Y44907D01*
X30750Y44914D01*
D02*
G37*
G36*
X28765Y45100D02*
X28562D01*
Y44897D01*
X28579Y44899D01*
X28642Y44925D01*
X28695Y44966D01*
X28737Y45020D01*
X28763Y45083D01*
X28765Y45100D01*
D02*
G37*
G36*
X30430Y45336D02*
X30227D01*
X30229Y45319D01*
X30255Y45256D01*
X30297Y45203D01*
X30350Y45161D01*
X30413Y45135D01*
X30430Y45133D01*
Y45336D01*
D02*
G37*
G36*
X30530Y45639D02*
Y45386D01*
Y45133D01*
X30548Y45135D01*
X30610Y45161D01*
X30664Y45203D01*
X30705Y45256D01*
X30731Y45319D01*
X30781D01*
X30807Y45256D01*
X30848Y45203D01*
X30902Y45161D01*
X30964Y45135D01*
X30982Y45133D01*
Y45386D01*
Y45639D01*
X30964Y45637D01*
X30902Y45611D01*
X30848Y45570D01*
X30807Y45516D01*
X30781Y45453D01*
X30731D01*
X30705Y45516D01*
X30664Y45570D01*
X30610Y45611D01*
X30548Y45637D01*
X30530Y45639D01*
D02*
G37*
G36*
X29100Y45164D02*
X29064Y45157D01*
X28991Y45109D01*
X28943Y45036D01*
X28936Y45000D01*
X29100D01*
Y45164D01*
D02*
G37*
G36*
X29200D02*
Y45000D01*
X29364D01*
X29357Y45036D01*
X29309Y45109D01*
X29236Y45157D01*
X29200Y45164D01*
D02*
G37*
G36*
X29364Y44900D02*
X29200D01*
Y44736D01*
X29236Y44743D01*
X29309Y44791D01*
X29357Y44864D01*
X29364Y44900D01*
D02*
G37*
G36*
X32400Y44864D02*
X32364Y44857D01*
X32291Y44809D01*
X32243Y44736D01*
X32236Y44700D01*
X32400D01*
Y44864D01*
D02*
G37*
G36*
X32500D02*
Y44700D01*
X32664D01*
X32657Y44736D01*
X32609Y44809D01*
X32536Y44857D01*
X32500Y44864D01*
D02*
G37*
G36*
X30650Y44650D02*
X30486D01*
X30493Y44614D01*
X30541Y44541D01*
X30614Y44493D01*
X30650Y44486D01*
Y44650D01*
D02*
G37*
G36*
X30914D02*
X30750D01*
Y44486D01*
X30786Y44493D01*
X30859Y44541D01*
X30907Y44614D01*
X30914Y44650D01*
D02*
G37*
G36*
X30100Y44931D02*
X30082Y44928D01*
X30020Y44903D01*
X29966Y44861D01*
X29925Y44807D01*
X29899Y44745D01*
X29896Y44728D01*
X30100D01*
Y44931D01*
D02*
G37*
G36*
X31412D02*
Y44728D01*
X31615D01*
X31613Y44745D01*
X31587Y44807D01*
X31546Y44861D01*
X31492Y44903D01*
X31429Y44928D01*
X31412Y44931D01*
D02*
G37*
G36*
X29100Y44900D02*
X28936D01*
X28943Y44864D01*
X28991Y44791D01*
X29064Y44743D01*
X29100Y44736D01*
Y44900D01*
D02*
G37*
G36*
X31312Y44931D02*
X31295Y44928D01*
X31232Y44903D01*
X31179Y44861D01*
X31137Y44807D01*
X31111Y44745D01*
X31109Y44728D01*
X31312D01*
Y44931D01*
D02*
G37*
G36*
X30200D02*
Y44728D01*
X30403D01*
X30400Y44745D01*
X30375Y44807D01*
X30333Y44861D01*
X30279Y44903D01*
X30217Y44928D01*
X30200Y44931D01*
D02*
G37*
G36*
X31750Y45864D02*
Y45700D01*
X31914D01*
X31907Y45736D01*
X31859Y45809D01*
X31786Y45857D01*
X31750Y45864D01*
D02*
G37*
G36*
X32350D02*
X32314Y45857D01*
X32241Y45809D01*
X32193Y45736D01*
X32186Y45700D01*
X32350D01*
Y45864D01*
D02*
G37*
G36*
X30114Y45650D02*
X29950D01*
Y45486D01*
X29986Y45493D01*
X30059Y45541D01*
X30107Y45614D01*
X30114Y45650D01*
D02*
G37*
G36*
X31650Y45864D02*
X31614Y45857D01*
X31541Y45809D01*
X31493Y45736D01*
X31486Y45700D01*
X31650D01*
Y45864D01*
D02*
G37*
G36*
X32450D02*
Y45700D01*
X32614D01*
X32607Y45736D01*
X32559Y45809D01*
X32486Y45857D01*
X32450Y45864D01*
D02*
G37*
G36*
X29850Y45914D02*
X29814Y45907D01*
X29741Y45859D01*
X29693Y45786D01*
X29686Y45750D01*
X29850D01*
Y45914D01*
D02*
G37*
G36*
X29950D02*
Y45750D01*
X30114D01*
X30107Y45786D01*
X30059Y45859D01*
X29986Y45907D01*
X29950Y45914D01*
D02*
G37*
G36*
X29150D02*
X29114Y45907D01*
X29041Y45859D01*
X28993Y45786D01*
X28986Y45750D01*
X29150D01*
Y45914D01*
D02*
G37*
G36*
X29250D02*
Y45750D01*
X29414D01*
X29407Y45786D01*
X29359Y45859D01*
X29286Y45907D01*
X29250Y45914D01*
D02*
G37*
G36*
X29850Y45650D02*
X29686D01*
X29693Y45614D01*
X29741Y45541D01*
X29814Y45493D01*
X29850Y45486D01*
Y45650D01*
D02*
G37*
G36*
X31914Y45600D02*
X31750D01*
Y45436D01*
X31786Y45443D01*
X31859Y45491D01*
X31907Y45564D01*
X31914Y45600D01*
D02*
G37*
G36*
X32350D02*
X32186D01*
X32193Y45564D01*
X32241Y45491D01*
X32314Y45443D01*
X32350Y45436D01*
Y45600D01*
D02*
G37*
G36*
X31285Y45336D02*
X31082D01*
Y45133D01*
X31099Y45135D01*
X31161Y45161D01*
X31215Y45203D01*
X31256Y45256D01*
X31282Y45319D01*
X31285Y45336D01*
D02*
G37*
G36*
X31650Y45600D02*
X31486D01*
X31493Y45564D01*
X31541Y45491D01*
X31614Y45443D01*
X31650Y45436D01*
Y45600D01*
D02*
G37*
G36*
X32614D02*
X32450D01*
Y45436D01*
X32486Y45443D01*
X32559Y45491D01*
X32607Y45564D01*
X32614Y45600D01*
D02*
G37*
G36*
X29150Y45650D02*
X28986D01*
X28993Y45614D01*
X29041Y45541D01*
X29114Y45493D01*
X29150Y45486D01*
Y45650D01*
D02*
G37*
G36*
X29414D02*
X29250D01*
Y45486D01*
X29286Y45493D01*
X29359Y45541D01*
X29407Y45614D01*
X29414Y45650D01*
D02*
G37*
G36*
X30430Y45639D02*
X30413Y45637D01*
X30350Y45611D01*
X30297Y45570D01*
X30255Y45516D01*
X30229Y45453D01*
X30227Y45436D01*
X30430D01*
Y45639D01*
D02*
G37*
G36*
X31082D02*
Y45436D01*
X31285D01*
X31282Y45453D01*
X31256Y45516D01*
X31215Y45570D01*
X31161Y45611D01*
X31099Y45637D01*
X31082Y45639D01*
D02*
G37*
G36*
X30403Y43210D02*
X30200D01*
Y43007D01*
X30217Y43009D01*
X30279Y43035D01*
X30333Y43077D01*
X30375Y43130D01*
X30400Y43193D01*
X30403Y43210D01*
D02*
G37*
G36*
X31615D02*
X31412D01*
Y43007D01*
X31429Y43009D01*
X31492Y43035D01*
X31546Y43077D01*
X31587Y43130D01*
X31613Y43193D01*
X31615Y43210D01*
D02*
G37*
G36*
X31312D02*
X31109D01*
X31111Y43193D01*
X31137Y43130D01*
X31179Y43077D01*
X31232Y43035D01*
X31295Y43009D01*
X31312Y43007D01*
Y43210D01*
D02*
G37*
G36*
X30100D02*
X29896D01*
X29899Y43193D01*
X29925Y43130D01*
X29966Y43077D01*
X30020Y43035D01*
X30082Y43009D01*
X30100Y43007D01*
Y43210D01*
D02*
G37*
G36*
X30650Y43300D02*
X30486D01*
X30493Y43264D01*
X30541Y43191D01*
X30614Y43143D01*
X30650Y43136D01*
Y43300D01*
D02*
G37*
G36*
X30100Y43513D02*
X30082Y43511D01*
X30020Y43485D01*
X29966Y43444D01*
X29925Y43390D01*
X29899Y43328D01*
X29896Y43310D01*
X30100D01*
Y43513D01*
D02*
G37*
G36*
X31312D02*
X31295Y43511D01*
X31232Y43485D01*
X31179Y43444D01*
X31137Y43390D01*
X31111Y43328D01*
X31109Y43310D01*
X31312D01*
Y43513D01*
D02*
G37*
G36*
X30914Y43300D02*
X30750D01*
Y43136D01*
X30786Y43143D01*
X30859Y43191D01*
X30907Y43264D01*
X30914Y43300D01*
D02*
G37*
G36*
X32514Y43750D02*
X32086D01*
X32093Y43714D01*
X32141Y43641D01*
X32156Y43632D01*
X32153Y43611D01*
X32141Y43582D01*
X32080Y43570D01*
X32020Y43530D01*
X31980Y43470D01*
X31966Y43400D01*
X31980Y43330D01*
X32020Y43270D01*
X32080Y43230D01*
X32150Y43216D01*
X32220Y43230D01*
X32280Y43270D01*
X32320Y43330D01*
X32334Y43400D01*
X32320Y43470D01*
X32281Y43529D01*
X32282Y43535D01*
X32298Y43572D01*
X32301Y43576D01*
X32386Y43593D01*
X32459Y43641D01*
X32507Y43714D01*
X32514Y43750D01*
D02*
G37*
G36*
X29200Y43164D02*
Y43000D01*
X29364D01*
X29357Y43036D01*
X29309Y43109D01*
X29236Y43157D01*
X29200Y43164D01*
D02*
G37*
G36*
X31312Y42805D02*
X31295Y42802D01*
X31232Y42777D01*
X31179Y42735D01*
X31137Y42681D01*
X31111Y42619D01*
X31109Y42602D01*
X31312D01*
Y42805D01*
D02*
G37*
G36*
X30200D02*
Y42602D01*
X30403D01*
X30400Y42619D01*
X30375Y42681D01*
X30333Y42735D01*
X30279Y42777D01*
X30217Y42802D01*
X30200Y42805D01*
D02*
G37*
G36*
X30100D02*
X30082Y42802D01*
X30020Y42777D01*
X29966Y42735D01*
X29925Y42681D01*
X29899Y42619D01*
X29896Y42602D01*
X30100D01*
Y42805D01*
D02*
G37*
G36*
X30706D02*
X30689Y42802D01*
X30626Y42777D01*
X30572Y42735D01*
X30531Y42681D01*
X30505Y42619D01*
X30503Y42602D01*
X30706D01*
Y42805D01*
D02*
G37*
G36*
X30806D02*
Y42602D01*
X31009D01*
X31007Y42619D01*
X30981Y42681D01*
X30940Y42735D01*
X30886Y42777D01*
X30823Y42802D01*
X30806Y42805D01*
D02*
G37*
G36*
X29364Y42900D02*
X29200D01*
Y42736D01*
X29236Y42743D01*
X29309Y42791D01*
X29357Y42864D01*
X29364Y42900D01*
D02*
G37*
G36*
X29100Y43164D02*
X29064Y43157D01*
X28991Y43109D01*
X28943Y43036D01*
X28936Y43000D01*
X29100D01*
Y43164D01*
D02*
G37*
G36*
X31412Y42805D02*
Y42602D01*
X31615D01*
X31613Y42619D01*
X31587Y42681D01*
X31546Y42735D01*
X31492Y42777D01*
X31429Y42802D01*
X31412Y42805D01*
D02*
G37*
G36*
X29100Y42900D02*
X28936D01*
X28943Y42864D01*
X28991Y42791D01*
X29064Y42743D01*
X29100Y42736D01*
Y42900D01*
D02*
G37*
G36*
X30750Y44264D02*
Y44100D01*
X30914D01*
X30907Y44136D01*
X30859Y44209D01*
X30786Y44257D01*
X30750Y44264D01*
D02*
G37*
G36*
X31312Y44628D02*
X31109D01*
X31111Y44610D01*
X31137Y44548D01*
X31179Y44494D01*
X31232Y44453D01*
X31295Y44427D01*
X31312Y44424D01*
Y44628D01*
D02*
G37*
G36*
X29200Y44164D02*
Y44000D01*
X29364D01*
X29357Y44036D01*
X29309Y44109D01*
X29236Y44157D01*
X29200Y44164D01*
D02*
G37*
G36*
X30650Y44264D02*
X30614Y44257D01*
X30541Y44209D01*
X30493Y44136D01*
X30486Y44100D01*
X30650D01*
Y44264D01*
D02*
G37*
G36*
X30100Y44628D02*
X29896D01*
X29899Y44610D01*
X29925Y44548D01*
X29966Y44494D01*
X30020Y44453D01*
X30082Y44427D01*
X30100Y44424D01*
Y44628D01*
D02*
G37*
G36*
X32400Y44600D02*
X32236D01*
X32243Y44564D01*
X32291Y44491D01*
X32364Y44443D01*
X32400Y44436D01*
Y44600D01*
D02*
G37*
G36*
X32664D02*
X32500D01*
Y44436D01*
X32536Y44443D01*
X32609Y44491D01*
X32657Y44564D01*
X32664Y44600D01*
D02*
G37*
G36*
X30403Y44628D02*
X30200D01*
Y44424D01*
X30217Y44427D01*
X30279Y44453D01*
X30333Y44494D01*
X30375Y44548D01*
X30400Y44610D01*
X30403Y44628D01*
D02*
G37*
G36*
X31615D02*
X31412D01*
Y44424D01*
X31429Y44427D01*
X31492Y44453D01*
X31546Y44494D01*
X31587Y44548D01*
X31613Y44610D01*
X31615Y44628D01*
D02*
G37*
G36*
X29100Y44164D02*
X29064Y44157D01*
X28991Y44109D01*
X28943Y44036D01*
X28936Y44000D01*
X29100D01*
Y44164D01*
D02*
G37*
G36*
X30650Y43564D02*
X30614Y43557D01*
X30541Y43509D01*
X30493Y43436D01*
X30486Y43400D01*
X30650D01*
Y43564D01*
D02*
G37*
G36*
X30750D02*
Y43400D01*
X30914D01*
X30907Y43436D01*
X30859Y43509D01*
X30786Y43557D01*
X30750Y43564D01*
D02*
G37*
G36*
X30200Y43513D02*
Y43310D01*
X30403D01*
X30400Y43328D01*
X30375Y43390D01*
X30333Y43444D01*
X30279Y43485D01*
X30217Y43511D01*
X30200Y43513D01*
D02*
G37*
G36*
X31412D02*
Y43310D01*
X31615D01*
X31613Y43328D01*
X31587Y43390D01*
X31546Y43444D01*
X31492Y43485D01*
X31429Y43511D01*
X31412Y43513D01*
D02*
G37*
G36*
X29100Y43900D02*
X28936D01*
X28943Y43864D01*
X28991Y43791D01*
X29064Y43743D01*
X29100Y43736D01*
Y43900D01*
D02*
G37*
G36*
X30914Y44000D02*
X30750D01*
Y43836D01*
X30786Y43843D01*
X30859Y43891D01*
X30907Y43964D01*
X30914Y44000D01*
D02*
G37*
G36*
X32150Y44384D02*
X32080Y44370D01*
X32020Y44330D01*
X31980Y44270D01*
X31966Y44200D01*
X31980Y44130D01*
X32020Y44070D01*
X32080Y44030D01*
X32141Y44018D01*
X32153Y43989D01*
X32156Y43968D01*
X32141Y43959D01*
X32093Y43886D01*
X32086Y43850D01*
X32514D01*
X32507Y43886D01*
X32459Y43959D01*
X32386Y44007D01*
X32301Y44024D01*
X32298Y44028D01*
X32282Y44065D01*
X32281Y44071D01*
X32320Y44130D01*
X32334Y44200D01*
X32320Y44270D01*
X32280Y44330D01*
X32220Y44370D01*
X32150Y44384D01*
D02*
G37*
G36*
X29364Y43900D02*
X29200D01*
Y43736D01*
X29236Y43743D01*
X29309Y43791D01*
X29357Y43864D01*
X29364Y43900D01*
D02*
G37*
G36*
X30650Y44000D02*
X30486D01*
X30493Y43964D01*
X30541Y43891D01*
X30614Y43843D01*
X30650Y43836D01*
Y44000D01*
D02*
G37*
%LPD*%
D10*
X25674Y41550D02*
D03*
Y41050D02*
D03*
Y40550D02*
D03*
Y40050D02*
D03*
X23626D02*
D03*
Y40550D02*
D03*
Y41050D02*
D03*
Y41550D02*
D03*
D11*
X45000Y23000D02*
D03*
Y24000D02*
D03*
Y25000D02*
D03*
Y26000D02*
D03*
Y27000D02*
D03*
X32000Y37000D02*
D03*
X30000D02*
D03*
X42000Y24000D02*
D03*
X40000D02*
D03*
X43000Y21000D02*
D03*
X30000Y12000D02*
D03*
X32000Y14000D02*
D03*
X30000D02*
D03*
X33000Y25000D02*
D03*
Y22000D02*
D03*
X29000Y18000D02*
D03*
Y17000D02*
D03*
X32000Y12000D02*
D03*
X20000Y25000D02*
D03*
X19000Y19000D02*
D03*
X16000Y27000D02*
D03*
Y24000D02*
D03*
X28199Y10089D02*
D03*
X26466Y10457D02*
D03*
D12*
X26453Y39550D02*
D03*
X26847D02*
D03*
D13*
X35585Y19905D02*
D03*
X36175D02*
D03*
X36171Y18979D02*
D03*
X35580D02*
D03*
X36175Y18053D02*
D03*
X35585D02*
D03*
D14*
X40713Y27200D02*
D03*
X41500D02*
D03*
D15*
X41106Y28204D02*
D03*
D16*
X22250Y17947D02*
D03*
Y17553D02*
D03*
X21550Y17947D02*
D03*
Y17553D02*
D03*
D17*
X30626Y11938D02*
D03*
X31000D02*
D03*
X31374D02*
D03*
Y12962D02*
D03*
X31000D02*
D03*
X30626D02*
D03*
D18*
X26600Y42885D02*
D03*
Y42215D02*
D03*
X22700Y42885D02*
D03*
Y42215D02*
D03*
X24600Y18965D02*
D03*
Y19635D02*
D03*
X25450Y18965D02*
D03*
Y19635D02*
D03*
X21620Y24205D02*
D03*
Y24875D02*
D03*
X23300Y20565D02*
D03*
Y21235D02*
D03*
X22450Y20565D02*
D03*
Y21235D02*
D03*
X39200Y44685D02*
D03*
Y44015D02*
D03*
X35400Y44915D02*
D03*
Y45585D02*
D03*
X24100Y33465D02*
D03*
Y34135D02*
D03*
X32300Y24235D02*
D03*
Y23565D02*
D03*
X29200Y24235D02*
D03*
Y23565D02*
D03*
X35400Y41765D02*
D03*
Y42435D02*
D03*
X26600Y40865D02*
D03*
Y41535D02*
D03*
X35650Y38985D02*
D03*
Y38315D02*
D03*
X34800Y38985D02*
D03*
Y38315D02*
D03*
D19*
X24280Y17350D02*
D03*
X23920D02*
D03*
X26830Y38550D02*
D03*
X26470D02*
D03*
X26830Y39050D02*
D03*
X26470D02*
D03*
X39820Y43450D02*
D03*
X40180D02*
D03*
X24280Y16850D02*
D03*
X23920D02*
D03*
Y17850D02*
D03*
X24280D02*
D03*
X26670Y17400D02*
D03*
X27030D02*
D03*
X26670Y17900D02*
D03*
X27030D02*
D03*
X20290Y32420D02*
D03*
X19930D02*
D03*
X24020Y32620D02*
D03*
X24380D02*
D03*
X19929Y33429D02*
D03*
X20289D02*
D03*
X39820Y43950D02*
D03*
X40180D02*
D03*
Y42950D02*
D03*
X39820D02*
D03*
X40330Y20000D02*
D03*
X39970D02*
D03*
X36745Y18976D02*
D03*
X37105D02*
D03*
X36750Y18050D02*
D03*
X37110D02*
D03*
X36750Y19903D02*
D03*
X37110D02*
D03*
X38470Y20100D02*
D03*
X38830D02*
D03*
X36800Y21180D02*
D03*
X36440D02*
D03*
D20*
X19300Y22650D02*
D03*
Y20445D02*
D03*
D21*
X42365Y28200D02*
D03*
X43035D02*
D03*
X26765Y18600D02*
D03*
X27435D02*
D03*
X34715Y37400D02*
D03*
X35385D02*
D03*
X39115Y41800D02*
D03*
X39785D02*
D03*
D22*
X24800Y23788D02*
D03*
Y24812D02*
D03*
X36800Y23388D02*
D03*
Y24412D02*
D03*
D23*
X26750Y13920D02*
D03*
Y14280D02*
D03*
X26000Y13920D02*
D03*
Y14280D02*
D03*
X25400Y24170D02*
D03*
Y24530D02*
D03*
X23750Y24680D02*
D03*
Y24320D02*
D03*
X23100D02*
D03*
Y24680D02*
D03*
X24800Y22920D02*
D03*
Y23280D02*
D03*
Y22170D02*
D03*
Y22530D02*
D03*
X41450Y40230D02*
D03*
Y39870D02*
D03*
X40850Y40230D02*
D03*
Y39870D02*
D03*
X43450Y39780D02*
D03*
Y39420D02*
D03*
X31650Y24330D02*
D03*
Y23970D02*
D03*
X29850Y24330D02*
D03*
Y23970D02*
D03*
X38450Y23350D02*
D03*
Y22990D02*
D03*
X39500Y19220D02*
D03*
Y19580D02*
D03*
X37870Y22050D02*
D03*
Y22410D02*
D03*
X38050Y21080D02*
D03*
Y20720D02*
D03*
X38950Y22990D02*
D03*
Y23350D02*
D03*
X35350Y40220D02*
D03*
Y40580D02*
D03*
X40000Y19220D02*
D03*
Y19580D02*
D03*
X40500D02*
D03*
Y19220D02*
D03*
X39000Y19580D02*
D03*
Y19220D02*
D03*
D24*
X29341Y19261D02*
D03*
Y21939D02*
D03*
D25*
X27293Y20994D02*
D03*
Y20206D02*
D03*
D26*
X24726Y18094D02*
D03*
Y17897D02*
D03*
Y17700D02*
D03*
Y17503D02*
D03*
Y17306D02*
D03*
X26274D02*
D03*
Y17503D02*
D03*
Y17700D02*
D03*
Y17897D02*
D03*
Y18094D02*
D03*
D27*
X25106Y16926D02*
D03*
X25303D02*
D03*
X25500D02*
D03*
X25697D02*
D03*
X25894D02*
D03*
Y18474D02*
D03*
X25697D02*
D03*
X25500D02*
D03*
X25303D02*
D03*
X25106D02*
D03*
D28*
X25500Y17700D02*
D03*
D29*
X21600Y23341D02*
D03*
Y22159D02*
D03*
X36700Y37459D02*
D03*
Y38641D02*
D03*
D30*
X22522Y23384D02*
D03*
Y23128D02*
D03*
Y22872D02*
D03*
Y22616D02*
D03*
X24077D02*
D03*
Y22872D02*
D03*
Y23128D02*
D03*
Y23384D02*
D03*
D31*
X22916Y22222D02*
D03*
X23172D02*
D03*
X23428D02*
D03*
X23684D02*
D03*
Y23777D02*
D03*
X23428D02*
D03*
X23172D02*
D03*
X22916D02*
D03*
D32*
X23300Y23000D02*
D03*
D33*
X38405Y45085D02*
D03*
Y44830D02*
D03*
Y44574D02*
D03*
Y44318D02*
D03*
Y44062D02*
D03*
Y43806D02*
D03*
Y43550D02*
D03*
Y43294D02*
D03*
Y43038D02*
D03*
Y42782D02*
D03*
X36200D02*
D03*
Y43038D02*
D03*
Y43294D02*
D03*
Y43550D02*
D03*
Y43806D02*
D03*
Y44062D02*
D03*
Y44318D02*
D03*
Y44574D02*
D03*
Y44830D02*
D03*
Y45085D02*
D03*
X25805Y42782D02*
D03*
Y43038D02*
D03*
Y43294D02*
D03*
Y43550D02*
D03*
Y43806D02*
D03*
Y44062D02*
D03*
Y44318D02*
D03*
Y44574D02*
D03*
Y44830D02*
D03*
Y45086D02*
D03*
X23600D02*
D03*
Y44830D02*
D03*
Y44574D02*
D03*
Y44318D02*
D03*
Y44062D02*
D03*
Y43806D02*
D03*
Y43550D02*
D03*
Y43294D02*
D03*
Y43038D02*
D03*
Y42782D02*
D03*
X38400Y41924D02*
D03*
Y41668D02*
D03*
Y41412D02*
D03*
Y41156D02*
D03*
Y40900D02*
D03*
Y40644D02*
D03*
Y40388D02*
D03*
Y40132D02*
D03*
Y39876D02*
D03*
Y39620D02*
D03*
X36195D02*
D03*
Y39876D02*
D03*
Y40132D02*
D03*
Y40388D02*
D03*
Y40644D02*
D03*
Y40900D02*
D03*
Y41156D02*
D03*
Y41412D02*
D03*
Y41668D02*
D03*
Y41924D02*
D03*
D34*
X22100Y31550D02*
D03*
D35*
X23301Y33361D02*
D03*
Y29739D02*
D03*
X20899D02*
D03*
Y33361D02*
D03*
D36*
X23301Y33125D02*
D03*
Y32928D02*
D03*
Y32731D02*
D03*
Y32534D02*
D03*
Y32337D02*
D03*
Y32141D02*
D03*
Y31944D02*
D03*
Y31747D02*
D03*
Y31550D02*
D03*
Y31353D02*
D03*
Y31156D02*
D03*
Y30959D02*
D03*
Y30763D02*
D03*
Y30566D02*
D03*
Y30369D02*
D03*
Y30172D02*
D03*
Y29975D02*
D03*
X20899D02*
D03*
Y30172D02*
D03*
Y30369D02*
D03*
Y30566D02*
D03*
Y30763D02*
D03*
Y30959D02*
D03*
Y31156D02*
D03*
Y31353D02*
D03*
Y31550D02*
D03*
Y31747D02*
D03*
Y31944D02*
D03*
Y32141D02*
D03*
Y32337D02*
D03*
Y32534D02*
D03*
Y32731D02*
D03*
Y32928D02*
D03*
Y33125D02*
D03*
D37*
X30750Y27334D02*
D03*
D38*
Y25050D02*
D03*
X29845D02*
D03*
X31655D02*
D03*
D39*
X37050Y22360D02*
D03*
X36190D02*
D03*
Y21700D02*
D03*
X37050D02*
D03*
D40*
X38620Y22164D02*
D03*
Y20786D02*
D03*
X40470D02*
D03*
Y22164D02*
D03*
D41*
X38620Y21967D02*
D03*
Y21770D02*
D03*
Y21573D02*
D03*
Y21376D02*
D03*
Y21179D02*
D03*
Y20983D02*
D03*
X40470D02*
D03*
Y21179D02*
D03*
Y21376D02*
D03*
Y21573D02*
D03*
Y21770D02*
D03*
Y21967D02*
D03*
D42*
X38856Y20550D02*
D03*
X40234D02*
D03*
Y22400D02*
D03*
X38856D02*
D03*
D43*
X39053Y20550D02*
D03*
X39250D02*
D03*
X39447D02*
D03*
X39644D02*
D03*
X39841D02*
D03*
X40037D02*
D03*
Y22400D02*
D03*
X39841D02*
D03*
X39644D02*
D03*
X39447D02*
D03*
X39250D02*
D03*
X39053D02*
D03*
D44*
X39545Y21475D02*
D03*
D45*
X41650Y19517D02*
D03*
X41276Y20383D02*
D03*
X42024D02*
D03*
D46*
X37650Y24727D02*
D03*
Y23073D02*
D03*
D47*
X33000Y45150D02*
D03*
Y45623D02*
D03*
Y46095D02*
D03*
Y46567D02*
D03*
X28512D02*
D03*
Y46095D02*
D03*
Y45623D02*
D03*
Y45150D02*
D03*
X31362Y41134D02*
D03*
Y41843D02*
D03*
Y42552D02*
D03*
Y43260D02*
D03*
Y44678D02*
D03*
X31031Y45386D02*
D03*
X30756Y41134D02*
D03*
Y41843D02*
D03*
Y42552D02*
D03*
X30150Y41134D02*
D03*
Y41843D02*
D03*
Y42552D02*
D03*
Y43260D02*
D03*
Y44678D02*
D03*
X30480Y45386D02*
D03*
X33000Y43532D02*
D03*
X28512D02*
D03*
X33000Y42532D02*
D03*
X28512D02*
D03*
X33000Y41532D02*
D03*
X28512D02*
D03*
X33000Y40532D02*
D03*
X28512D02*
D03*
X33000Y39532D02*
D03*
X28512D02*
D03*
X33000Y38532D02*
D03*
X28512D02*
D03*
D48*
X32409Y46272D02*
D03*
X31937D02*
D03*
X31465D02*
D03*
X30992D02*
D03*
X30520D02*
D03*
X30047D02*
D03*
X29575D02*
D03*
X29102D02*
D03*
Y38831D02*
D03*
X29575D02*
D03*
X30047D02*
D03*
X30520D02*
D03*
X30992D02*
D03*
X31465D02*
D03*
X31937D02*
D03*
X32409D02*
D03*
D49*
X33600Y38537D02*
D03*
Y39007D02*
D03*
Y39477D02*
D03*
Y39957D02*
D03*
Y40427D02*
D03*
Y40897D02*
D03*
Y41371D02*
D03*
Y41843D02*
D03*
Y42315D02*
D03*
Y42788D02*
D03*
Y43260D02*
D03*
Y43733D02*
D03*
Y44205D02*
D03*
Y44678D02*
D03*
Y45150D02*
D03*
Y45623D02*
D03*
Y46097D02*
D03*
Y46567D02*
D03*
X27911D02*
D03*
Y46095D02*
D03*
Y45623D02*
D03*
Y45150D02*
D03*
Y44678D02*
D03*
Y44205D02*
D03*
Y43733D02*
D03*
Y43260D02*
D03*
Y42788D02*
D03*
Y42315D02*
D03*
Y41843D02*
D03*
Y41371D02*
D03*
X27921Y40898D02*
D03*
Y40426D02*
D03*
Y39953D02*
D03*
Y39481D02*
D03*
Y39008D02*
D03*
Y38536D02*
D03*
D50*
X32410Y46876D02*
D03*
X31937D02*
D03*
X31465D02*
D03*
X30992D02*
D03*
X30520D02*
D03*
X30050D02*
D03*
X29575D02*
D03*
X29102D02*
D03*
Y38226D02*
D03*
X29575D02*
D03*
X30047D02*
D03*
X30520D02*
D03*
X30992D02*
D03*
X31465D02*
D03*
X31937D02*
D03*
X32409D02*
D03*
D51*
X32000Y36550D02*
Y37000D01*
X29750Y37400D02*
X30000Y37150D01*
Y37000D02*
Y37150D01*
Y13550D02*
Y14000D01*
X16500Y27000D02*
X16550Y27050D01*
X16000Y27000D02*
X16500D01*
X16000Y24000D02*
X16500D01*
X32400Y11700D02*
X32700D01*
X31880Y11180D02*
X32400Y11700D01*
X32700D02*
X33000Y12000D01*
X33850D01*
X33950Y11900D01*
X41276Y20876D02*
X41300Y20900D01*
X41276Y20383D02*
Y20876D01*
X41591Y19950D02*
X42024Y20383D01*
X40950Y19950D02*
X41591D01*
X40600Y20300D02*
X40950Y19950D01*
X40100Y20300D02*
X40600D01*
X40037Y20363D02*
X40100Y20300D01*
X40037Y20363D02*
Y20550D01*
X38200Y20100D02*
X38470D01*
X37700Y21050D02*
X37730Y21080D01*
X38050D01*
X38149Y21179D01*
X38620D01*
X39447Y22400D02*
Y22653D01*
X39800Y41350D02*
Y42000D01*
X25500Y17700D02*
X25894Y17306D01*
X36196Y39620D02*
X37130D01*
X25894Y16926D02*
X25920Y16900D01*
X26300D01*
X26274Y16926D02*
X26300Y16900D01*
X26274Y16926D02*
Y17306D01*
X27030Y17900D02*
X27300D01*
X25894Y16926D02*
Y17306D01*
X26274D01*
X35400Y44915D02*
X35486Y44830D01*
X36200D01*
X36670D02*
X36700Y44800D01*
X36200Y44830D02*
X36670D01*
X37050Y39600D02*
X37130Y39620D01*
X35400Y41765D02*
X35498Y41668D01*
X36195D01*
X25850Y39050D02*
X26470D01*
Y38550D02*
Y39050D01*
X26453Y39067D02*
Y39550D01*
Y39067D02*
X26470Y39050D01*
X25805Y43038D02*
X26446D01*
X26600Y42885D01*
X25200Y43050D02*
X25212Y43038D01*
X25200Y43050D02*
X25300D01*
X26215Y42215D02*
X26600D01*
X26200Y42200D02*
X26215Y42215D01*
X26600Y40450D02*
Y40865D01*
X23115Y45086D02*
X23600D01*
X23100Y45100D02*
X23115Y45086D01*
X22700Y42885D02*
X22854Y43038D01*
X22700Y42215D02*
X23085D01*
X23100Y42200D01*
X22854Y43038D02*
X23100D01*
X23600D01*
X36195Y39620D02*
X36196Y39620D01*
X36750Y41650D02*
X36768Y41668D01*
X36732D02*
X36750Y41650D01*
X36195Y41668D02*
X36732D01*
X36200Y42782D02*
X36732D01*
X36750Y42800D01*
X41500Y27200D02*
X41950D01*
X43035Y28200D02*
X43450D01*
X39150Y44735D02*
X39200Y44685D01*
X38405Y42782D02*
X38932D01*
X38950Y42800D01*
X43070Y39780D02*
X43450D01*
X43050Y39800D02*
X43070Y39780D01*
X43450Y39150D02*
Y39420D01*
X40850Y39600D02*
Y39870D01*
X41450D02*
X41780D01*
X41800Y39850D01*
X38400Y41668D02*
X38983D01*
X39115Y41800D01*
Y42185D01*
X39100Y42200D02*
X39115Y42185D01*
X39785Y41800D02*
Y41985D01*
X39800Y42000D01*
X38405Y44830D02*
X39055D01*
X39150Y44735D01*
X35221Y18979D02*
X35580D01*
X35200Y19000D02*
X35221Y18979D01*
X35203Y18053D02*
X35585D01*
X35200Y18050D02*
X35203Y18053D01*
X39447Y22653D02*
X39512Y22718D01*
X25300Y43050D02*
Y45050D01*
X25212Y43038D02*
X25805D01*
X25790Y45100D02*
X25805Y45086D01*
X25300Y45050D02*
X25350Y45100D01*
X25790D01*
X15310Y33320D02*
Y33330D01*
X17708Y30172D02*
X20899D01*
X15340Y32540D02*
X17708Y30172D01*
X17271Y29739D02*
X20899D01*
X15350Y31660D02*
X17271Y29739D01*
X15350Y31660D02*
Y31690D01*
X23301Y31747D02*
X26037D01*
X27640Y33350D01*
X23301Y31550D02*
X26600D01*
X27880Y32830D01*
Y33950D01*
X27680Y34150D02*
X27880Y33950D01*
X27670Y34150D02*
X27680D01*
X23301Y31353D02*
X26973D01*
X28190Y32570D01*
Y34500D01*
X27650Y35040D02*
X28190Y34500D01*
X23301Y31156D02*
X27296D01*
X27590Y31450D01*
X23301Y30959D02*
X27569D01*
X27750Y31140D01*
X27636Y30566D02*
X27880Y30810D01*
X23301Y30369D02*
X26461D01*
X23301Y30172D02*
X26128D01*
X26340Y29960D02*
X26350Y29970D01*
X26128Y30172D02*
X26340Y29960D01*
X23301Y29739D02*
X26009D01*
X26020Y29750D01*
X19480Y35870D02*
X19530Y35920D01*
X19480Y31305D02*
Y35870D01*
Y31305D02*
X19615Y31170D01*
X19630D01*
X19650Y31150D01*
X20893D01*
X20899Y31156D01*
X18271Y30369D02*
X20899D01*
X15310Y33330D02*
X18271Y30369D01*
X18760Y31350D02*
Y34070D01*
X19170Y31300D02*
Y34990D01*
Y31300D02*
X19511Y30959D01*
X18760Y31350D02*
X19544Y30566D01*
X19511Y30959D02*
X20899D01*
X19544Y30566D02*
X20899D01*
X27030Y17400D02*
X27300D01*
X37650Y24727D02*
Y25100D01*
X38950Y23350D02*
Y23600D01*
X23301Y30566D02*
X27636D01*
X26461Y30369D02*
X26600Y30230D01*
X26350Y29970D02*
Y29980D01*
X38400Y39620D02*
X38880D01*
X31730Y11180D02*
X31880D01*
X38880Y39620D02*
X38900Y39600D01*
X26000Y13900D02*
Y13920D01*
X37400Y11200D02*
Y11250D01*
D52*
X19000Y20145D02*
X19300Y20445D01*
X19000Y19000D02*
Y20145D01*
X27293Y20206D02*
X27344D01*
X28050Y19500D01*
Y18950D02*
Y19500D01*
Y18950D02*
X29000Y18000D01*
X28900Y16450D02*
X29000Y16550D01*
Y17000D01*
X31700Y14300D02*
X32000Y14000D01*
X42000Y23500D02*
Y24000D01*
X43000Y20500D02*
Y21000D01*
X33000Y21500D02*
Y22000D01*
Y46095D02*
Y46567D01*
X28512Y46095D02*
Y46567D01*
X30750Y25050D02*
Y26700D01*
X26550Y21500D02*
X26900D01*
X27300D01*
X26550Y21000D02*
Y21500D01*
X27293Y21493D02*
X27300Y21500D01*
X27293Y20994D02*
Y21493D01*
X21600Y25300D02*
X21620Y25280D01*
Y24875D02*
Y25280D01*
X35385Y36965D02*
X35400Y36950D01*
X35385Y36965D02*
Y37400D01*
X33893Y39007D02*
X34200Y38700D01*
X25689Y41535D02*
X26600D01*
X25674Y41550D02*
X25689Y41535D01*
X26600D02*
X26985D01*
X27000Y41550D01*
X25674Y41050D02*
Y41550D01*
X33600Y39007D02*
X33893D01*
X36700Y37659D02*
X36950Y37409D01*
Y36900D02*
Y37209D01*
X36450Y37409D02*
X36700Y37659D01*
X36450Y36900D02*
Y37209D01*
X34200Y37400D02*
Y38700D01*
Y37400D02*
X34615D01*
X34800Y37900D02*
Y38315D01*
X24100Y34135D02*
Y34600D01*
X35650Y37900D02*
Y38315D01*
X27911Y45150D02*
X28512D01*
X27911Y45623D02*
X28512D01*
X27911Y46567D02*
X28512D01*
X31937Y38226D02*
Y38831D01*
X33600Y39477D02*
X33973D01*
X34150Y39300D01*
X35065Y45585D02*
X35400D01*
X35050Y45600D02*
X35065Y45585D01*
X35400Y42435D02*
X35735D01*
X35750Y42450D01*
X30750Y24350D02*
Y25050D01*
D53*
X32300Y24750D02*
X32550Y25000D01*
X33000D01*
X20000Y24750D02*
X20600Y24150D01*
X20000Y24750D02*
Y25000D01*
X28183Y43733D02*
X28600Y44150D01*
X27911Y43733D02*
X28183D01*
X31000Y12962D02*
Y13400D01*
Y11938D02*
Y12400D01*
X31650Y23650D02*
Y23970D01*
X32205Y24330D02*
X32300Y24235D01*
X31650Y24330D02*
X32205D01*
X29850Y23650D02*
Y23970D01*
X29845Y25050D02*
X29850Y25045D01*
X29295Y24330D02*
X29850D01*
X29200Y24235D02*
X29295Y24330D01*
X22950Y40050D02*
X23626D01*
X42133Y28433D02*
Y29451D01*
Y28433D02*
X42365Y28200D01*
X41106Y29424D02*
X41133Y29451D01*
X39150Y44735D02*
Y45100D01*
X39200Y43600D02*
Y44015D01*
X40250Y27200D02*
X40713D01*
X41106Y28204D02*
Y29424D01*
X23301Y33361D02*
X23405Y33465D01*
X24100D01*
X23301Y33361D02*
Y33699D01*
X23300Y33700D02*
X23301Y33699D01*
X42133Y29451D02*
Y34867D01*
X38150Y38850D02*
X42133Y34867D01*
D54*
X32300Y23150D02*
Y23565D01*
X35650Y38985D02*
X36556D01*
X36500Y39150D02*
X36700Y38950D01*
Y38641D02*
Y38950D01*
X32300Y24235D02*
Y24750D01*
X29200Y23150D02*
Y23565D01*
X34800Y38985D02*
X35650D01*
X34193Y39957D02*
X34800Y39350D01*
Y38985D02*
Y39350D01*
X33600Y39957D02*
X34193D01*
X29200Y24235D02*
Y24750D01*
D55*
X38950Y22990D02*
X39090D01*
X40000Y23900D02*
Y24000D01*
X39090Y22990D02*
X40000Y23900D01*
X43444Y24444D02*
X45000Y26000D01*
X43444Y23394D02*
Y24444D01*
X43000Y23300D02*
Y25000D01*
X45000Y27000D01*
Y25000D02*
X46662Y26662D01*
X45000Y26000D02*
X46406Y27406D01*
X45000Y27000D02*
X46150Y28150D01*
X43750Y23150D02*
Y23750D01*
X45000Y25000D01*
X43900Y22850D02*
X46918Y25868D01*
X43250Y22850D02*
X43900D01*
X44500Y22500D02*
X47174Y25174D01*
X43000Y22500D02*
X44500D01*
X33500Y36000D02*
X34400Y36900D01*
X27350Y36000D02*
X33500D01*
X24475Y33125D02*
X27350Y36000D01*
X34400Y36900D02*
X34750D01*
X35300Y36350D01*
X26050Y34450D02*
X27250Y35650D01*
X24528Y32928D02*
X26050Y34450D01*
X27250Y35650D02*
X33600D01*
X34600Y36650D01*
Y34600D02*
X36100Y36100D01*
X32250Y34600D02*
X34600D01*
X24800Y27150D02*
X32250Y34600D01*
X37281Y36598D02*
Y44331D01*
X30133Y29451D02*
X37281Y36598D01*
X28350Y39150D02*
X28500D01*
X28208Y39008D02*
X28350Y39150D01*
X28400Y38850D02*
X28700D01*
X28086Y38536D02*
X28400Y38850D01*
X38830Y20100D02*
X38856Y20126D01*
Y20550D01*
X38620Y20554D02*
X38624Y20551D01*
X38620Y20554D02*
Y20786D01*
X38350Y20400D02*
Y20900D01*
X38433Y20983D01*
X38620D01*
X38450Y22850D02*
Y22990D01*
X38200Y21900D02*
Y22550D01*
X38050Y22700D02*
X38200Y22550D01*
X37650Y23073D02*
X38023Y22700D01*
X38050D01*
X38600Y22450D02*
X38620Y22430D01*
Y22164D02*
Y22430D01*
X38350Y22750D02*
X38450Y22850D01*
Y22990D02*
X38950D01*
X38320D02*
X38450D01*
X36800Y23388D02*
X37115Y23073D01*
X37650D01*
X23130Y17930D02*
X23750Y18550D01*
X22250Y17930D02*
X23130D01*
X35500Y39850D02*
X35782Y40132D01*
X33627Y42289D02*
X33738Y42400D01*
X27400Y42550D02*
X27773Y42177D01*
X25100Y40800D02*
X26150D01*
X26250Y40700D01*
Y40300D02*
Y40700D01*
X26000Y40050D02*
X26250Y40300D01*
X27610Y43260D02*
X27911D01*
X32718Y40250D02*
X33000Y40532D01*
X35000Y41450D02*
Y41950D01*
X35150Y42100D01*
X36019D01*
X27921Y39008D02*
X28208D01*
X35350Y41300D02*
X35400D01*
X35512Y41412D01*
X27921Y38536D02*
X28086D01*
X34450Y40900D02*
X35000Y41450D01*
X33000Y41532D02*
Y42000D01*
X36195Y39876D02*
X36222Y39850D01*
X33600Y46567D02*
X35583D01*
X36195Y40644D02*
X36201Y40650D01*
X33860Y43260D02*
X34100Y43500D01*
X33600Y43260D02*
X33860D01*
X33600Y43733D02*
X33674Y43806D01*
X33850Y42400D02*
X34650Y43200D01*
X33738Y42400D02*
X33850D01*
X34650Y43200D02*
X35250D01*
X33600Y42315D02*
X33627Y42289D01*
X34600Y43550D02*
X36200D01*
X33838Y42788D02*
X34600Y43550D01*
X33600Y42788D02*
X33838D01*
X33050Y44250D02*
X33095Y44205D01*
X33600D01*
X33674Y43806D02*
X36250D01*
X35650Y44050D02*
X35662Y44062D01*
X36200D01*
X27911Y41371D02*
X27970D01*
X28550Y41950D01*
X36200Y45085D02*
Y45400D01*
X33723Y45500D02*
X33900D01*
X34150Y45250D01*
Y44800D02*
Y45250D01*
X33600Y45623D02*
X33723Y45500D01*
X34150Y44800D02*
X34632Y44318D01*
X36200D01*
X33600Y46097D02*
X34203D01*
X34400Y45900D01*
X25805Y43294D02*
X27878D01*
X27911Y43260D01*
X25805Y43550D02*
X26850D01*
X27505Y44205D01*
X27911D01*
X25800Y42100D02*
X26057Y41843D01*
X25800Y42100D02*
Y42778D01*
X25805Y42782D01*
X26057Y41843D02*
X27911D01*
X25811Y43800D02*
X26350D01*
X25805Y43806D02*
X25811Y43800D01*
X23200Y41050D02*
X23576D01*
X22300Y41950D02*
X23200Y41050D01*
X25674Y40050D02*
X26000D01*
X25624D02*
X25674D01*
X24100Y43300D02*
X24400Y43000D01*
X23606Y43300D02*
X24100D01*
X23600Y43294D02*
X23606Y43300D01*
X23600Y43806D02*
X24206D01*
X23626Y41550D02*
Y42756D01*
X23600Y42782D02*
X23626Y42756D01*
X24800Y41100D02*
X25100Y40800D01*
X24400Y41000D02*
Y43000D01*
Y41000D02*
X24850Y40550D01*
X25624D01*
X24206Y43806D02*
X24800Y43212D01*
Y41100D02*
Y43212D01*
X27773Y42177D02*
X27911Y42315D01*
X35712Y40388D02*
X36195D01*
X35700Y40900D02*
X36195D01*
X35512Y41412D02*
X36195D01*
X35782Y40132D02*
X36195D01*
X36019Y42100D02*
X36195Y41924D01*
X32700Y40250D02*
X32718D01*
X33000Y39532D02*
Y39900D01*
X35500Y39850D02*
X35600D01*
X34626Y44574D02*
X36200D01*
X34400Y44800D02*
Y45900D01*
Y44800D02*
X34626Y44574D01*
X22550Y43550D02*
X23600D01*
X22300Y41950D02*
Y43300D01*
X22550Y43550D01*
X36201Y40650D02*
X36700D01*
X36222Y39850D02*
X36700D01*
X35583Y46567D02*
X37000Y45150D01*
X38390Y45100D02*
X38405Y45085D01*
X38381Y44550D02*
X38405Y44574D01*
X38068Y44318D02*
X38405D01*
X38062Y44062D02*
X38405D01*
X38056Y43806D02*
X38405D01*
X38050Y43550D02*
X38405D01*
X38050Y44550D02*
X38381D01*
X38050Y45100D02*
X38390D01*
X36195Y41156D02*
X36556D01*
X37000Y41600D01*
Y45150D01*
X43330Y40230D02*
X43450Y40350D01*
X41450Y40230D02*
X43330D01*
X44150Y40300D02*
Y40350D01*
X42600Y40050D02*
X43900D01*
X44150Y40300D01*
X42150Y39600D02*
X42600Y40050D01*
X41150Y39750D02*
X41300Y39600D01*
X42150D01*
X40850Y40230D02*
X40970D01*
X41150Y40050D01*
Y39750D02*
Y40050D01*
X41450Y40230D02*
Y41150D01*
X40300Y42300D02*
X41450Y41150D01*
X38400Y41412D02*
X39412D01*
X40850Y40230D02*
Y41300D01*
X39550Y42250D02*
X39900D01*
X40850Y41300D01*
X39412Y41412D02*
X39450Y41450D01*
Y42250D02*
X39550D01*
X40300Y42300D02*
Y42450D01*
X38400Y41924D02*
X38524D01*
X40290Y42440D02*
X40300Y42450D01*
X39810Y42440D02*
X40290D01*
X39662Y42588D02*
X39810Y42440D01*
X39820Y43950D02*
Y44180D01*
X39700Y44300D02*
X39820Y44180D01*
X37281Y44331D02*
X38050Y45100D01*
X37401Y43901D02*
X38050Y44550D01*
X37521Y43771D02*
X38068Y44318D01*
X37650Y43650D02*
X38062Y44062D01*
X37770Y43520D02*
X38056Y43806D01*
X37890Y43390D02*
X38050Y43550D01*
X38524Y41924D02*
X39188Y42588D01*
X39662D01*
X31133Y29451D02*
Y29883D01*
X32133Y29451D02*
Y29883D01*
X33133Y29451D02*
Y29983D01*
X37650Y34500D01*
X37890Y35310D02*
X40133Y33067D01*
Y29451D02*
Y33067D01*
X38700Y19850D02*
X39000D01*
X38050Y19200D02*
X38700Y19850D01*
X38050Y18550D02*
Y19200D01*
X37550Y18050D02*
X38050Y18550D01*
X37110Y18050D02*
X37550D01*
X37110Y19903D02*
X37253D01*
X37750Y20400D01*
X38350D01*
X39053Y22400D02*
Y22556D01*
X39310Y22813D01*
X38856Y22400D02*
Y22529D01*
X39190Y22863D01*
Y22863D01*
X39677Y23350D01*
X40470Y20786D02*
X40636D01*
X40750Y20900D01*
X40234Y20550D02*
X40600D01*
X40750Y20900D02*
Y21050D01*
X39677Y23350D02*
X40000D01*
X39310Y22813D02*
Y22813D01*
X40600Y20550D02*
X43444Y23394D01*
X39497Y23000D02*
X41350D01*
X39310Y22813D02*
X39497Y23000D01*
X34100Y40900D02*
Y41600D01*
Y40900D02*
X34420Y40580D01*
X35350D01*
X35544Y40220D02*
X35712Y40388D01*
X35350Y40220D02*
X35544D01*
X35200Y40070D02*
X35350Y40220D01*
X35200Y39550D02*
Y40070D01*
X33413Y38537D02*
X33600D01*
X33550Y37950D02*
Y38487D01*
X33600Y38537D01*
X26830Y38550D02*
X27907D01*
X27921Y38536D01*
X26872Y39008D02*
X27921D01*
X26830Y39050D02*
X26872Y39008D01*
X26847Y39550D02*
X27250Y39953D01*
Y40700D01*
X27448Y40898D01*
X27921D01*
X37770Y32180D02*
X38133Y31817D01*
Y29451D02*
Y31817D01*
X38400Y40644D02*
X39236D01*
X38406Y41150D02*
X38950D01*
X38400Y41156D02*
X38406Y41150D01*
X24800Y24812D02*
Y27150D01*
X23301Y33125D02*
X24475D01*
X32133Y29883D02*
X37521Y35271D01*
X31133Y29883D02*
X37401Y36151D01*
X37521Y35271D02*
Y43771D01*
X37401Y36151D02*
Y43901D01*
X23301Y32928D02*
X24528D01*
X39450Y41450D02*
Y42250D01*
X36800Y24412D02*
Y24900D01*
X39000Y19850D02*
X39447Y20297D01*
Y20550D01*
X38350Y22000D02*
Y22750D01*
Y22000D02*
X38383Y21967D01*
X38620D01*
X38200Y21900D02*
X38330Y21770D01*
X38620D01*
X40750Y21050D02*
X43000Y23300D01*
X40470Y21573D02*
X40973D01*
X41000Y21600D01*
X37326Y18976D02*
X37350Y19000D01*
X37105Y18976D02*
X37326D01*
X25350Y39500D02*
X25600Y39750D01*
X26700D01*
X26847Y39603D01*
Y39550D02*
Y39603D01*
X40000Y43630D02*
X40180Y43450D01*
X40000Y43630D02*
Y44300D01*
X39820Y43450D02*
Y43950D01*
X40180D02*
X40450D01*
X40550Y43850D01*
X40180Y42950D02*
X40550Y43320D01*
Y43850D01*
X39820Y42830D02*
Y42950D01*
Y42830D02*
X40000Y42650D01*
X37650Y34500D02*
Y43650D01*
X37770Y32180D02*
Y43520D01*
X37890Y35310D02*
Y43390D01*
X38400Y39876D02*
X39074D01*
X46150Y32800D01*
Y28150D02*
Y32800D01*
X38400Y40132D02*
X39118D01*
X46406Y32844D01*
Y27406D02*
Y32844D01*
X38400Y40388D02*
X39162D01*
X46662Y32888D01*
Y26662D02*
Y32888D01*
X39236Y40644D02*
X46918Y32963D01*
Y25868D02*
Y32963D01*
X39250Y40900D02*
X47174Y32976D01*
Y25174D02*
Y32976D01*
X38400Y40900D02*
X39250D01*
D56*
X30564Y12000D02*
X30626Y11938D01*
X30000Y12000D02*
X30564D01*
X30839Y11050D02*
X31324Y11535D01*
X30576Y11838D02*
X30650Y11764D01*
Y11500D02*
Y11764D01*
Y11500D02*
X30750Y11400D01*
X21900Y21650D02*
X22500Y22250D01*
X21900Y21200D02*
Y21300D01*
X24714Y22616D02*
X24800Y22702D01*
X21900Y21300D02*
X21950Y21250D01*
X21600Y21600D02*
X21900Y21300D01*
Y21650D01*
X21350Y21600D02*
X21600D01*
X21900Y21200D02*
X21950Y21250D01*
X22500Y21850D02*
Y22250D01*
Y21850D02*
X22550Y21800D01*
X25170Y23280D02*
X25200Y23250D01*
X24800Y23280D02*
X25170D01*
X25118Y24812D02*
X25400Y24530D01*
X24800Y24812D02*
X25118D01*
X24396Y23384D02*
X24800Y23788D01*
X24077Y23384D02*
X24396D01*
X24800Y22702D02*
Y22920D01*
X24077Y22616D02*
X24714D01*
X23172Y22872D02*
X23300Y23000D01*
X22916Y22222D02*
Y22616D01*
X23370Y24680D02*
X23400Y24650D01*
X23100Y24680D02*
X23370D01*
X23430D02*
X23750D01*
X23400Y24650D02*
X23430Y24680D01*
X23400Y24650D02*
X23428Y24622D01*
X22950Y40550D02*
X23626D01*
X23428Y23777D02*
Y24622D01*
X22950Y21800D02*
X23300D01*
X22550D02*
X22950D01*
X23300Y23000D02*
X23428Y22872D01*
X23428Y22222D02*
Y22722D01*
X23428Y22872D02*
X24077D01*
X23019Y22719D02*
X23172Y22872D01*
Y22222D02*
Y22872D01*
X30800Y11050D02*
X30839D01*
X30750Y11400D02*
X30850D01*
X31324Y11535D02*
Y11838D01*
D57*
X31374Y11938D02*
X31436Y12000D01*
X32000D01*
X31220Y13392D02*
X31374Y13238D01*
X31220Y13392D02*
Y13491D01*
X31070Y13641D02*
Y14420D01*
X30930Y14478D02*
X32842Y16390D01*
X30930Y13641D02*
Y14478D01*
X30780Y13491D02*
X30930Y13641D01*
X31070Y14420D02*
X32900Y16250D01*
X31374Y12962D02*
Y13238D01*
X31070Y13641D02*
X31220Y13491D01*
X30626Y13012D02*
Y13238D01*
X30576Y12962D02*
X30626Y13012D01*
X33572Y10022D02*
Y10277D01*
X33000Y9450D02*
X33572Y10022D01*
X40330Y20000D02*
X40550D01*
X41033Y19517D01*
X41650D01*
X37700Y20700D02*
X37720Y20720D01*
X38050D01*
X36976Y21356D02*
X38490D01*
X36800Y21180D02*
X36976Y21356D01*
X37410Y22050D02*
X37873D01*
X37520Y22380D02*
X37790D01*
X37100Y22360D02*
X37410Y22050D01*
X37790Y22380D02*
X37820Y22410D01*
X36170Y21230D02*
X36440D01*
X36240Y21700D02*
X36350D01*
X36800Y21250D01*
Y21180D02*
Y21250D01*
X40250Y18950D02*
Y18970D01*
X40500Y19220D01*
X39250Y18950D02*
Y18970D01*
X39000Y19220D02*
X39250Y18970D01*
X39000Y19580D02*
X39500D01*
X40000D02*
X40500D01*
X39841Y20129D02*
Y20550D01*
Y20129D02*
X39970Y20000D01*
Y19610D02*
Y20000D01*
Y19610D02*
X40000Y19580D01*
X39644Y19724D02*
Y20550D01*
X39500Y19580D02*
X39644Y19724D01*
X39850Y19070D02*
X40000Y19220D01*
X39850Y18152D02*
Y19070D01*
X39700Y18200D02*
Y19020D01*
X39500Y19220D02*
X39700Y19020D01*
X37890Y16390D02*
X39700Y18200D01*
X37948Y16250D02*
X39850Y18152D01*
X32900Y16250D02*
X37948D01*
X32842Y16390D02*
X37890D01*
X30780Y13392D02*
Y13491D01*
X30626Y13238D02*
X30780Y13392D01*
X26150Y9600D02*
X27350D01*
X26300Y9850D02*
X27350D01*
X34751Y10900D02*
X35128Y10523D01*
X32700Y10900D02*
X34751D01*
X21550Y17930D02*
Y18250D01*
X25450Y18965D02*
X25485Y19000D01*
X25700Y16500D02*
Y16923D01*
X25697Y16926D02*
X25700Y16923D01*
X26567Y17503D02*
X26670Y17400D01*
X26274Y17503D02*
X26567D01*
X26274Y17700D02*
X26470D01*
X26670Y17900D01*
X23600Y17850D02*
X23920D01*
X23900Y16500D02*
X23920Y16520D01*
Y16850D01*
X23550Y17100D02*
X24051D01*
X24280Y17329D01*
Y17350D01*
X24726Y17296D02*
Y17306D01*
X24280Y16850D02*
X24726Y17296D01*
Y17503D02*
Y17700D01*
X24327Y17897D02*
X24726D01*
X24280Y17850D02*
X24327Y17897D01*
X24280Y17780D02*
Y17850D01*
X23920Y17350D02*
Y17420D01*
X24428Y23128D02*
X24430Y23130D01*
X24077Y23128D02*
X24428D01*
X36178Y19903D02*
X36750D01*
X36175Y19905D02*
X36178Y19903D01*
X35205Y19905D02*
X35585D01*
X35200Y19900D02*
X35205Y19905D01*
X36173Y18976D02*
X36745D01*
X36171Y18979D02*
X36173Y18976D01*
X36175Y18053D02*
X36747D01*
X36750Y18050D01*
X23920Y17420D02*
X24280Y17780D01*
X21265Y32755D02*
X21500Y32990D01*
X21405Y32579D02*
X21556Y32730D01*
X21740D01*
X22845Y29975D02*
X23301D01*
X22840Y29970D02*
X22845Y29975D01*
X22853Y30763D02*
X23301D01*
X22850Y30760D02*
X22853Y30763D01*
X23301Y32534D02*
X23636D01*
X23720Y32450D01*
X20498Y32928D02*
X20899D01*
X20490Y32920D02*
X20498Y32928D01*
X20899D02*
Y33125D01*
Y32731D02*
Y32928D01*
X20290Y32420D02*
X20404Y32534D01*
X20899D01*
X20357Y33361D02*
X20899D01*
X20289Y33429D02*
X20357Y33361D01*
X19929Y32941D02*
Y33429D01*
Y32941D02*
X19930Y32940D01*
Y32420D02*
Y32940D01*
X20899Y30763D02*
X21313D01*
X22100Y31550D01*
X20899Y29975D02*
X21535D01*
X21540Y29970D01*
X23301Y32731D02*
X23909D01*
X24020Y32620D01*
X24380D02*
X24620D01*
X24650Y32650D01*
X24280Y17350D02*
X24433Y17503D01*
X24726D01*
X25979Y14280D02*
X26000D01*
X25265Y16889D02*
X25303Y16926D01*
X25480Y16906D02*
X25500Y16926D01*
X25265Y14993D02*
Y16889D01*
X25480Y15550D02*
Y16906D01*
X38450Y23350D02*
Y23600D01*
X37873Y21677D02*
Y22050D01*
Y21677D02*
X37997Y21553D01*
X38620D01*
X25400Y23900D02*
Y24170D01*
X27350Y9850D02*
X27500Y9700D01*
X31500D02*
X32700Y10900D01*
X27500Y9700D02*
X28022D01*
X28033Y9689D01*
X28365D01*
X28376Y9700D01*
X31500D01*
X27350Y9600D02*
X27500Y9450D01*
X33000D01*
X21740Y32720D02*
Y32730D01*
X20899Y32337D02*
X21159D01*
X21265Y32444D01*
Y32755D01*
X20899Y32141D02*
X21170D01*
X21405Y32375D01*
Y32579D01*
X26600Y23900D02*
Y25900D01*
X27150Y23850D02*
Y25900D01*
X25000Y11150D02*
X26300Y9850D01*
X22250Y16150D02*
Y17570D01*
Y16150D02*
X25000Y13400D01*
Y11150D02*
Y13400D01*
X24700Y11050D02*
X26150Y9600D01*
X21550Y16150D02*
Y17570D01*
Y16150D02*
X24700Y13000D01*
Y11050D02*
Y13000D01*
X25480Y15550D02*
X26750Y14280D01*
X25265Y14993D02*
X25979Y14280D01*
X25931Y13851D02*
X26000Y13920D01*
X25931Y12869D02*
Y13851D01*
Y12869D02*
X28311Y10489D01*
X28365D01*
X28753Y10100D01*
X36149Y11146D02*
X36445Y10850D01*
X36800D01*
X28753Y10100D02*
X31500D01*
X32546Y11146D01*
X36149D01*
X26730Y13901D02*
X26750Y13920D01*
X26730Y12370D02*
Y13901D01*
Y12370D02*
X28700Y10400D01*
X31445D01*
X36293Y11200D02*
X37400D01*
X31445Y10400D02*
X32445Y11400D01*
X36093D01*
X36293Y11200D01*
D58*
X20887Y31341D02*
X20899Y31353D01*
X19710Y31400D02*
X19769Y31341D01*
X20887D01*
X19990Y31550D02*
X20106D01*
X20115Y31541D01*
X20305D01*
X20233Y31747D02*
X20899D01*
Y31944D02*
X21324D01*
X21330Y31950D01*
X20305Y31541D02*
X20314Y31550D01*
X20899D01*
X20210Y31770D02*
X20233Y31747D01*
X19970Y31570D02*
X19990Y31550D01*
X26100Y24050D02*
Y25900D01*
D59*
X25485Y19000D02*
X26050D01*
X24600Y19635D02*
Y20200D01*
X25450Y19635D02*
Y20200D01*
X27435Y18600D02*
X27450Y18615D01*
Y19100D01*
D60*
X15786Y29451D02*
D03*
X45283D02*
D03*
D61*
X28133D02*
D03*
X29133D02*
D03*
X30133D02*
D03*
X31133D02*
D03*
X32133D02*
D03*
X33133D02*
D03*
X34133D02*
D03*
X35133D02*
D03*
X36133D02*
D03*
X37133D02*
D03*
X38133D02*
D03*
X39133D02*
D03*
X40133D02*
D03*
X41133D02*
D03*
X42133D02*
D03*
X43133D02*
D03*
D62*
X28885Y10949D02*
D03*
X26189Y11522D02*
D03*
D63*
X35944Y10653D02*
D03*
X32756Y10147D02*
D03*
D64*
X34350Y10400D02*
D03*
X35128Y10523D02*
D03*
X33572Y10277D02*
D03*
D65*
X32000Y36550D02*
D03*
X29750Y37400D02*
D03*
X28900Y16450D02*
D03*
X30000Y13550D02*
D03*
X31700Y14300D02*
D03*
X42000Y23500D02*
D03*
X43000Y20500D02*
D03*
X33000Y21500D02*
D03*
X16550Y27050D02*
D03*
X16500Y24000D02*
D03*
X25256Y17926D02*
D03*
X25756D02*
D03*
Y17476D02*
D03*
X25256D02*
D03*
X23016Y23272D02*
D03*
X23566D02*
D03*
X23016Y22722D02*
D03*
X23566D02*
D03*
X21799Y30861D02*
D03*
X22399D02*
D03*
Y31311D02*
D03*
X21799D02*
D03*
Y31761D02*
D03*
X22399D02*
D03*
Y32261D02*
D03*
X21799D02*
D03*
X39245Y21175D02*
D03*
X39845D02*
D03*
Y21775D02*
D03*
X39245D02*
D03*
X28500Y39150D02*
D03*
X28700Y38850D02*
D03*
X41300Y20900D02*
D03*
X38200Y20100D02*
D03*
X38624Y20551D02*
D03*
X37700Y20700D02*
D03*
Y21050D02*
D03*
X38050Y22700D02*
D03*
X38600Y22450D02*
D03*
X37520Y22380D02*
D03*
X36170Y21180D02*
D03*
X40250Y18950D02*
D03*
X39250D02*
D03*
X21550Y18250D02*
D03*
X31000Y13400D02*
D03*
Y12400D02*
D03*
X26300Y16900D02*
D03*
X25700Y16500D02*
D03*
X27300Y17900D02*
D03*
X23600Y17850D02*
D03*
X23900Y16500D02*
D03*
X23550Y17100D02*
D03*
X31650Y23650D02*
D03*
X29850D02*
D03*
X26550Y21500D02*
D03*
X27300D02*
D03*
X26900D02*
D03*
X21600Y25300D02*
D03*
X21350Y21600D02*
D03*
X21950Y21250D02*
D03*
X22500Y22250D02*
D03*
X22550Y21800D02*
D03*
X23300D02*
D03*
X25200Y23250D02*
D03*
X24430Y23130D02*
D03*
X35400Y36950D02*
D03*
X35350Y41300D02*
D03*
X34450Y40900D02*
D03*
X33000Y42000D02*
D03*
X34100Y41600D02*
D03*
Y43500D02*
D03*
X35250Y43200D02*
D03*
X35700Y40900D02*
D03*
X33050Y44250D02*
D03*
X35650Y44050D02*
D03*
X28550Y41950D02*
D03*
X36200Y45400D02*
D03*
X26350Y43800D02*
D03*
X27400Y42550D02*
D03*
X32700Y40250D02*
D03*
X33000Y39900D02*
D03*
X35600Y39850D02*
D03*
X36700Y44800D02*
D03*
X37050Y39600D02*
D03*
X25850Y39050D02*
D03*
X25300Y43050D02*
D03*
X26200Y42200D02*
D03*
X26600Y40450D02*
D03*
X27000Y41550D02*
D03*
X22950Y40050D02*
D03*
Y40550D02*
D03*
X23100Y45100D02*
D03*
Y42200D02*
D03*
Y43038D02*
D03*
X36700Y40650D02*
D03*
Y39850D02*
D03*
X36750Y41650D02*
D03*
Y42800D02*
D03*
X41950Y27200D02*
D03*
X43450Y28200D02*
D03*
X36950Y36900D02*
D03*
X36450D02*
D03*
X39150Y45100D02*
D03*
X38950Y42800D02*
D03*
X43450Y40350D02*
D03*
X44150D02*
D03*
X43050Y39800D02*
D03*
X44100Y39250D02*
D03*
X43450Y39150D02*
D03*
X40850Y39600D02*
D03*
X41800Y39850D02*
D03*
X39100Y42200D02*
D03*
X39800Y41350D02*
D03*
X39550Y42250D02*
D03*
X40300Y42450D02*
D03*
X39200Y43600D02*
D03*
X40000Y42650D02*
D03*
X40550Y43850D02*
D03*
X39700Y44300D02*
D03*
X39300Y43150D02*
D03*
X40250Y27200D02*
D03*
X35200Y19900D02*
D03*
Y19000D02*
D03*
Y18050D02*
D03*
X39512Y22718D02*
D03*
X43750Y23150D02*
D03*
X43000Y22500D02*
D03*
X43250Y22850D02*
D03*
X41350Y23000D02*
D03*
X40000Y23350D02*
D03*
X35200Y39550D02*
D03*
X33550Y37950D02*
D03*
X32150Y43400D02*
D03*
Y45000D02*
D03*
Y44200D02*
D03*
X30432Y34183D02*
D03*
Y34983D02*
D03*
Y33383D02*
D03*
X18161Y32483D02*
D03*
Y33283D02*
D03*
Y31683D02*
D03*
X38098Y33651D02*
D03*
Y34451D02*
D03*
Y32851D02*
D03*
X45365Y32454D02*
D03*
Y33254D02*
D03*
Y31654D02*
D03*
X26951Y12981D02*
D03*
X26151D02*
D03*
X27750D02*
D03*
X34469Y12987D02*
D03*
X33669D02*
D03*
X35269D02*
D03*
X34800Y37900D02*
D03*
X38950Y41150D02*
D03*
X36800Y10850D02*
D03*
X37400Y11250D02*
D03*
X15310Y33320D02*
D03*
X15340Y32540D02*
D03*
X15350Y31690D02*
D03*
X27640Y33350D02*
D03*
X27670Y34150D02*
D03*
X27650Y35040D02*
D03*
X27590Y31450D02*
D03*
X27750Y31140D02*
D03*
X27880Y30810D02*
D03*
X26020Y29750D02*
D03*
X19530Y35920D02*
D03*
X22950Y21800D02*
D03*
X21500Y32990D02*
D03*
X21330Y31950D02*
D03*
X20210Y31770D02*
D03*
X19970Y31570D02*
D03*
X19710Y31400D02*
D03*
X19170Y34990D02*
D03*
X18760Y34070D02*
D03*
X22840Y29970D02*
D03*
X22850Y30760D02*
D03*
X23720Y32450D02*
D03*
X20490Y32920D02*
D03*
X19930Y32940D02*
D03*
X21540Y29970D02*
D03*
X23300Y33700D02*
D03*
X24100Y34600D02*
D03*
X24650Y32650D02*
D03*
X35650Y37900D02*
D03*
X36100Y36100D02*
D03*
X35300Y36350D02*
D03*
X34600Y36650D02*
D03*
X27300Y17400D02*
D03*
X33950Y11900D02*
D03*
X37650Y25100D02*
D03*
X36800Y24900D02*
D03*
X38450Y23600D02*
D03*
X38950D02*
D03*
X41000Y21600D02*
D03*
X37350Y19000D02*
D03*
X25400Y23900D02*
D03*
X25350Y39500D02*
D03*
X26600Y30230D02*
D03*
X26350Y29980D02*
D03*
X38150Y38850D02*
D03*
X21740Y32720D02*
D03*
X26600Y25900D02*
D03*
Y23900D02*
D03*
X26100Y24050D02*
D03*
Y25900D02*
D03*
X27150D02*
D03*
Y23850D02*
D03*
X34150Y39300D02*
D03*
X29100Y40050D02*
D03*
X30000D02*
D03*
X29150Y41100D02*
D03*
X31650Y39500D02*
D03*
X32300D02*
D03*
X32350Y41550D02*
D03*
Y42450D02*
D03*
X29150Y42100D02*
D03*
Y42950D02*
D03*
Y43950D02*
D03*
Y44950D02*
D03*
X32450Y44650D02*
D03*
X32300Y43800D02*
D03*
X30700Y44050D02*
D03*
Y44700D02*
D03*
Y43350D02*
D03*
X32400Y45650D02*
D03*
X31700D02*
D03*
X29900Y45700D02*
D03*
X29200D02*
D03*
X31100Y40000D02*
D03*
X35050Y45600D02*
D03*
X35750Y42450D02*
D03*
X30750Y24350D02*
D03*
X40000Y44300D02*
D03*
X38900Y39600D02*
D03*
X30800Y11050D02*
D03*
X30850Y11400D02*
D03*
D66*
X32300Y23150D02*
D03*
X36500Y39150D02*
D03*
X26050Y19000D02*
D03*
X24600Y20200D02*
D03*
X25450D02*
D03*
X34200Y37400D02*
D03*
X29750Y11210D02*
D03*
X27450Y19100D02*
D03*
X20600Y23500D02*
D03*
Y24150D02*
D03*
X30750Y25800D02*
D03*
Y26450D02*
D03*
X32300Y24750D02*
D03*
X29200Y23100D02*
D03*
Y24750D02*
D03*
X31730Y11180D02*
D03*
M02*
