G04 Layer_Physical_Order=4*
G04 Layer_Color=16711680*
%FSLAX24Y24*%
%MOIN*%
G70*
G01*
G75*
%ADD11C,0.0600*%
%ADD51C,0.0100*%
%ADD52C,0.0250*%
%ADD53C,0.0200*%
%ADD55C,0.0060*%
%ADD56C,0.0120*%
%ADD57C,0.0080*%
%ADD58C,0.0098*%
%ADD60C,0.1102*%
%ADD61O,0.0473X0.0945*%
%ADD62C,0.0750*%
%ADD63C,0.0787*%
%ADD64C,0.0630*%
%ADD65C,0.0240*%
%ADD66C,0.0500*%
%ADD82R,0.0630X0.0669*%
%ADD83R,0.0177X0.0669*%
%ADD84R,0.0935X0.0748*%
%ADD85R,0.0581X0.0827*%
G04:AMPARAMS|DCode=86|XSize=39.4mil|YSize=59.1mil|CornerRadius=0mil|HoleSize=0mil|Usage=FLASHONLY|Rotation=290.000|XOffset=0mil|YOffset=0mil|HoleType=Round|Shape=Rectangle|*
%AMROTATEDRECTD86*
4,1,4,-0.0345,0.0084,0.0210,0.0286,0.0345,-0.0084,-0.0210,-0.0286,-0.0345,0.0084,0.0*
%
%ADD86ROTATEDRECTD86*%

%ADD87P,0.0557X4X335.0*%
%ADD88R,0.0472X0.0138*%
G04:AMPARAMS|DCode=89|XSize=47.2mil|YSize=13.8mil|CornerRadius=3.4mil|HoleSize=0mil|Usage=FLASHONLY|Rotation=180.000|XOffset=0mil|YOffset=0mil|HoleType=Round|Shape=RoundedRectangle|*
%AMROUNDEDRECTD89*
21,1,0.0472,0.0069,0,0,180.0*
21,1,0.0404,0.0138,0,0,180.0*
1,1,0.0069,-0.0202,0.0034*
1,1,0.0069,0.0202,0.0034*
1,1,0.0069,0.0202,-0.0034*
1,1,0.0069,-0.0202,-0.0034*
%
%ADD89ROUNDEDRECTD89*%
%ADD90R,0.0669X0.0394*%
%ADD91R,0.0098X0.0216*%
%ADD92R,0.0669X0.0630*%
%ADD93C,0.0500*%
G36*
X32050Y10910D02*
X32040Y10900D01*
X31520D01*
X31340Y10720D01*
Y10300D01*
X31180D01*
Y11230D01*
X31450Y11500D01*
X32050D01*
Y10910D01*
D02*
G37*
G36*
X30320Y11240D02*
Y10310D01*
X30160D01*
Y10730D01*
X29980Y10910D01*
X29460D01*
X29450Y10920D01*
Y11510D01*
X30050D01*
X30320Y11240D01*
D02*
G37*
D11*
X28199Y10089D02*
D03*
X26466Y10457D02*
D03*
D51*
X43050Y39800D02*
X43509D01*
X43050Y39800D02*
X43050Y39800D01*
X44100Y39250D02*
Y39544D01*
X40530Y43870D02*
X40550Y43850D01*
X39700Y44300D02*
X39703Y44297D01*
X36800Y10461D02*
Y10850D01*
Y10461D02*
X36963Y10298D01*
X37400Y10850D02*
Y11250D01*
Y10850D02*
X37550Y10700D01*
X15310Y33320D02*
X15909D01*
X15925Y33337D01*
X15340Y32540D02*
X15895D01*
X15925Y32510D01*
X15350Y31690D02*
X15918D01*
X15925Y31683D01*
X27640Y33350D02*
X28163D01*
X28196Y33383D01*
X27670Y34150D02*
X28136D01*
X28196Y34210D01*
X27650Y35040D02*
X28193D01*
X28196Y35037D01*
X35862Y33678D02*
X36360Y33180D01*
X35862Y34504D02*
X36730Y33637D01*
X43690Y31140D02*
Y31920D01*
X43130Y32480D02*
X43690Y31920D01*
X27590Y31450D02*
X28860Y32720D01*
X35731D01*
X35862Y32851D01*
X27750Y31140D02*
X28840Y32230D01*
X36360Y32370D02*
Y33180D01*
X28840Y32230D02*
X36220D01*
X36360Y32370D01*
X27880Y30810D02*
X28850Y31780D01*
X36320D01*
X36730Y32190D01*
Y33637D01*
X28770Y31250D02*
X42726D01*
X43130Y31654D01*
X28760Y30820D02*
X43370D01*
X43690Y31140D01*
X26920Y30550D02*
X28070D01*
X28770Y31250D01*
X26350Y30000D02*
X26695D01*
X43480Y30370D02*
X44000Y30890D01*
Y32437D01*
X43130Y33307D02*
X44000Y32437D01*
X26695Y30000D02*
X27015Y30320D01*
X28260D01*
X28760Y30820D01*
X26920Y29750D02*
X27270Y30100D01*
X28470D01*
X28740Y30370D01*
X43480D01*
X29490Y45440D02*
X29915Y45015D01*
X25177Y45440D02*
X29490D01*
X19510Y39773D02*
X25177Y45440D01*
X19510Y35940D02*
Y39773D01*
Y35940D02*
X19530Y35920D01*
X19180Y34990D02*
X19930Y35740D01*
X19170Y34990D02*
X19180D01*
X19930Y39543D02*
X24847Y44460D01*
X29643D01*
X29915Y44189D01*
X19930Y35740D02*
Y39543D01*
X27878Y43362D02*
X29915D01*
X27150Y44090D02*
X27878Y43362D01*
X25370Y44090D02*
X27150D01*
X20580Y39300D02*
X25370Y44090D01*
X20580Y35860D02*
Y39300D01*
X18780Y34060D02*
X20580Y35860D01*
X18770Y34060D02*
X18780D01*
X18760Y34070D02*
X18770Y34060D01*
X33950Y11900D02*
X37127D01*
X38258Y10769D01*
X26600Y30230D02*
X26920Y30550D01*
X26020Y29750D02*
X26920D01*
D52*
X29750Y37400D02*
X34200D01*
X26800D02*
X29750D01*
X36750Y42800D02*
Y44800D01*
X25850Y38350D02*
Y39050D01*
Y43050D01*
X36700Y44800D02*
X36750D01*
X37050Y39600D02*
Y41350D01*
X36750Y41650D02*
X37050Y41350D01*
X36750Y41650D02*
Y42800D01*
X36150Y37400D02*
X37050Y38300D01*
Y39600D01*
X25850Y38350D02*
X26800Y37400D01*
X31568Y43362D02*
X32112D01*
X32150Y43400D01*
X31568Y43362D02*
Y44189D01*
Y45015D01*
X32135D01*
X32150Y45000D01*
X31568Y44189D02*
X32139D01*
X32150Y44200D01*
X29850Y34172D02*
X30420D01*
X29850Y34999D02*
X30417D01*
X29850Y34172D02*
Y34999D01*
Y33345D02*
Y34172D01*
Y33345D02*
X30394D01*
X17579Y32472D02*
X18149D01*
X17579Y33298D02*
X18145D01*
X17579Y32472D02*
Y33298D01*
Y31645D02*
Y32472D01*
Y31645D02*
X18122D01*
X37516Y33640D02*
X38086D01*
X37516Y34466D02*
X38082D01*
X37516Y33640D02*
Y34466D01*
Y32813D02*
Y33640D01*
Y32813D02*
X38060D01*
X44783Y32442D02*
X45354D01*
X44783Y33269D02*
X45350D01*
X44783Y32442D02*
Y33269D01*
Y31615D02*
Y32442D01*
Y31615D02*
X45327D01*
X26962Y12399D02*
Y12970D01*
X26135Y12399D02*
Y12966D01*
Y12399D02*
X26962D01*
X27789D01*
Y12943D01*
X34480Y12405D02*
Y12975D01*
X33653Y12405D02*
Y12971D01*
Y12405D02*
X34480D01*
X35307D01*
Y12948D01*
X34200Y37400D02*
X36150D01*
D53*
X25300Y43050D02*
X25850D01*
X31000Y13400D02*
X31880D01*
X38150Y38850D02*
Y44100D01*
X39150Y45100D01*
D55*
X28600Y39150D02*
X29100Y39650D01*
X28500Y39150D02*
X28600D01*
X28650Y38900D02*
X28750D01*
X29100Y39250D01*
X30900D01*
X38050Y22700D02*
X38300Y22450D01*
X38600D01*
X33000Y39850D02*
X35600D01*
X34187Y45850D02*
X35750D01*
X32579Y44242D02*
X34187Y45850D01*
X32579Y43268D02*
Y44242D01*
X31861Y42550D02*
X32579Y43268D01*
X29150Y42550D02*
X31861D01*
X33050Y44050D02*
X35700Y41400D01*
X33050Y44050D02*
Y44250D01*
X33850Y40900D02*
X34250Y41300D01*
X35350D01*
X33000Y42000D02*
X33400Y41600D01*
X34100D01*
X35700Y40900D02*
Y41400D01*
X34100Y43500D02*
X36200Y41400D01*
X35250Y43200D02*
Y43650D01*
X35650Y44050D01*
X28550Y41950D02*
X29150Y42550D01*
X35750Y45850D02*
X36200Y45400D01*
X26350Y43800D02*
X27400Y42750D01*
Y42550D02*
Y42750D01*
X34050Y40500D02*
X34450Y40900D01*
X33000Y39850D02*
Y39900D01*
X32700Y40250D02*
X36300D01*
X36200Y41150D02*
Y41400D01*
Y41150D02*
X36700Y40650D01*
X36300Y40250D02*
X36700Y39850D01*
X40294Y42945D02*
X40300Y42938D01*
X43450Y40115D02*
Y40350D01*
Y40115D02*
X43509Y40056D01*
X44150Y40106D02*
Y40350D01*
X44100Y40056D02*
X44150Y40106D01*
X39703Y42503D02*
Y42945D01*
X39550Y42350D02*
X39703Y42503D01*
X39550Y42250D02*
Y42350D01*
X40300Y42450D02*
Y42938D01*
X40000Y42650D02*
X40097Y42747D01*
Y42945D01*
Y43870D02*
X40294D01*
X40530D01*
X39900D02*
Y44000D01*
X39703Y43870D02*
Y44297D01*
X41500Y22850D02*
X43250D01*
X41350Y23000D02*
X41500Y22850D01*
X40000Y23350D02*
X40850Y22500D01*
X43000D01*
X33600Y37950D02*
X35200Y39550D01*
X33550Y37950D02*
X33600D01*
X36100Y36100D02*
X37600D01*
X35300Y36350D02*
X35350Y36400D01*
X37450D01*
X38800Y41500D02*
X39350D01*
X40300Y42450D01*
X34600Y36650D02*
X37150D01*
X38750Y41900D02*
X39200D01*
X39550Y42250D01*
X36800Y22374D02*
X38624Y20551D01*
X36800Y22374D02*
Y24900D01*
X43750Y22750D02*
Y23150D01*
X38624Y20551D02*
X38973Y20900D01*
X43200Y22200D02*
X43750Y22750D01*
X38973Y20900D02*
X40000D01*
X41300Y22200D02*
X43200D01*
X40000Y20900D02*
X41300Y22200D01*
X38400Y19000D02*
X41000Y21600D01*
X37350Y19000D02*
X38400D01*
X28199Y10067D02*
Y10089D01*
X18500Y32600D02*
X25350Y39450D01*
Y39500D01*
X25933Y10067D02*
X28199D01*
X18500Y19150D02*
Y32600D01*
X37600Y36100D02*
X39150Y37650D01*
X38950Y41150D02*
X39150D01*
X37450Y36400D02*
X38700Y37650D01*
X37150Y36650D02*
X38450Y37950D01*
Y41600D01*
X38750Y41900D01*
X31500Y40900D02*
X33850D01*
X29100Y39650D02*
X30250D01*
X31500Y40900D01*
X30900Y39250D02*
X32150Y40500D01*
X34050D01*
X38700Y37650D02*
Y39503D01*
X38690Y39513D02*
X38700Y39503D01*
X38690Y39513D02*
Y41390D01*
X38800Y41500D01*
X40097Y43506D02*
Y43870D01*
X39998Y43407D02*
X40097Y43506D01*
X39900Y44000D02*
X40000Y44100D01*
Y44300D01*
X39150Y37650D02*
Y41150D01*
X25200Y10800D02*
X25933Y10067D01*
X25200Y10800D02*
Y12450D01*
X18500Y19150D02*
X25200Y12450D01*
D56*
X30750Y10402D02*
Y11000D01*
X31006Y10402D02*
X31040Y10437D01*
Y11210D01*
X30750Y11000D02*
X30800Y11050D01*
X30850Y11400D02*
X31040Y11210D01*
D57*
X26050Y17300D02*
Y19000D01*
X25700Y16950D02*
X26050Y17300D01*
X25700Y16500D02*
Y16950D01*
X24211Y16500D02*
X25700D01*
X23611Y17100D02*
X24211Y16500D01*
X23550Y17100D02*
X23611D01*
X21790Y33000D02*
X21800Y32990D01*
X21790Y33000D02*
X22760D01*
X21500Y32990D02*
X21800D01*
X32700Y12050D02*
X34350Y10400D01*
X32700Y12050D02*
Y14860D01*
X24430Y23130D02*
X32700Y14860D01*
X21740Y32720D02*
X22540D01*
X26600Y23900D02*
X34442Y16058D01*
Y14058D02*
Y16058D01*
X27150Y23850D02*
X35269Y15731D01*
Y14058D02*
Y15731D01*
X23400Y29650D02*
X27150Y25900D01*
X23400Y29650D02*
Y32360D01*
X22760Y33000D02*
X23400Y32360D01*
X23150Y29350D02*
X26600Y25900D01*
X23150Y29350D02*
Y32110D01*
X22540Y32720D02*
X23150Y32110D01*
D58*
X20210Y20040D02*
Y31770D01*
Y20040D02*
X21850Y18400D01*
Y17900D02*
Y18400D01*
Y17900D02*
X24550Y15200D01*
X26200D01*
X26250Y15250D01*
X26553D01*
X27750Y14053D01*
X19970Y19330D02*
X24500Y14800D01*
X26176D01*
X26924Y14053D01*
X19710Y19130D02*
X24787Y14053D01*
X19710Y19130D02*
Y31400D01*
X21311Y31931D02*
X21330Y31950D01*
X26100Y23850D02*
Y24050D01*
Y23850D02*
X33615Y16335D01*
Y14058D02*
Y16335D01*
X21311Y30689D02*
X26100Y25900D01*
X21311Y30689D02*
Y31931D01*
X24787Y14053D02*
X26097D01*
X26924D02*
X26970Y14099D01*
X19970Y19330D02*
Y31570D01*
D60*
X15786Y29451D02*
D03*
X45283D02*
D03*
D61*
X28133D02*
D03*
X29133D02*
D03*
X30133D02*
D03*
X31133D02*
D03*
X32133D02*
D03*
X33133D02*
D03*
X34133D02*
D03*
X35133D02*
D03*
X36133D02*
D03*
X37133D02*
D03*
X38133D02*
D03*
X39133D02*
D03*
X40133D02*
D03*
X41133D02*
D03*
X42133D02*
D03*
X43133D02*
D03*
D62*
X28885Y10949D02*
D03*
X26189Y11522D02*
D03*
D63*
X35944Y10653D02*
D03*
X32756Y10147D02*
D03*
D64*
X34350Y10400D02*
D03*
X35128Y10523D02*
D03*
X33572Y10277D02*
D03*
D65*
X32000Y36550D02*
D03*
X29750Y37400D02*
D03*
X28900Y16450D02*
D03*
X30000Y13550D02*
D03*
X31700Y14300D02*
D03*
X42000Y23500D02*
D03*
X43000Y20500D02*
D03*
X33000Y21500D02*
D03*
X16550Y27050D02*
D03*
X16500Y24000D02*
D03*
X25256Y17926D02*
D03*
X25756D02*
D03*
Y17476D02*
D03*
X25256D02*
D03*
X23016Y23272D02*
D03*
X23566D02*
D03*
X23016Y22722D02*
D03*
X23566D02*
D03*
X21799Y30861D02*
D03*
X22399D02*
D03*
Y31311D02*
D03*
X21799D02*
D03*
Y31761D02*
D03*
X22399D02*
D03*
Y32261D02*
D03*
X21799D02*
D03*
X39245Y21175D02*
D03*
X39845D02*
D03*
Y21775D02*
D03*
X39245D02*
D03*
X28500Y39150D02*
D03*
X28700Y38850D02*
D03*
X41300Y20900D02*
D03*
X38200Y20100D02*
D03*
X38624Y20551D02*
D03*
X37700Y20700D02*
D03*
Y21050D02*
D03*
X38050Y22700D02*
D03*
X38600Y22450D02*
D03*
X37520Y22380D02*
D03*
X36170Y21180D02*
D03*
X40250Y18950D02*
D03*
X39250D02*
D03*
X21550Y18250D02*
D03*
X31000Y13400D02*
D03*
Y12400D02*
D03*
X26300Y16900D02*
D03*
X25700Y16500D02*
D03*
X27300Y17900D02*
D03*
X23600Y17850D02*
D03*
X23900Y16500D02*
D03*
X23550Y17100D02*
D03*
X31650Y23650D02*
D03*
X29850D02*
D03*
X26550Y21500D02*
D03*
X27300D02*
D03*
X26900D02*
D03*
X21600Y25300D02*
D03*
X21350Y21600D02*
D03*
X21950Y21250D02*
D03*
X22500Y22250D02*
D03*
X22550Y21800D02*
D03*
X23300D02*
D03*
X25200Y23250D02*
D03*
X24430Y23130D02*
D03*
X35400Y36950D02*
D03*
X35350Y41300D02*
D03*
X34450Y40900D02*
D03*
X33000Y42000D02*
D03*
X34100Y41600D02*
D03*
Y43500D02*
D03*
X35250Y43200D02*
D03*
X35700Y40900D02*
D03*
X33050Y44250D02*
D03*
X35650Y44050D02*
D03*
X28550Y41950D02*
D03*
X36200Y45400D02*
D03*
X26350Y43800D02*
D03*
X27400Y42550D02*
D03*
X32700Y40250D02*
D03*
X33000Y39900D02*
D03*
X35600Y39850D02*
D03*
X36700Y44800D02*
D03*
X37050Y39600D02*
D03*
X25850Y39050D02*
D03*
X25300Y43050D02*
D03*
X26200Y42200D02*
D03*
X26600Y40450D02*
D03*
X27000Y41550D02*
D03*
X22950Y40050D02*
D03*
Y40550D02*
D03*
X23100Y45100D02*
D03*
Y42200D02*
D03*
Y43038D02*
D03*
X36700Y40650D02*
D03*
Y39850D02*
D03*
X36750Y41650D02*
D03*
Y42800D02*
D03*
X41950Y27200D02*
D03*
X43450Y28200D02*
D03*
X36950Y36900D02*
D03*
X36450D02*
D03*
X39150Y45100D02*
D03*
X38950Y42800D02*
D03*
X43450Y40350D02*
D03*
X44150D02*
D03*
X43050Y39800D02*
D03*
X44100Y39250D02*
D03*
X43450Y39150D02*
D03*
X40850Y39600D02*
D03*
X41800Y39850D02*
D03*
X39100Y42200D02*
D03*
X39800Y41350D02*
D03*
X39550Y42250D02*
D03*
X40300Y42450D02*
D03*
X39200Y43600D02*
D03*
X40000Y42650D02*
D03*
X40550Y43850D02*
D03*
X39700Y44300D02*
D03*
X39300Y43150D02*
D03*
X40250Y27200D02*
D03*
X35200Y19900D02*
D03*
Y19000D02*
D03*
Y18050D02*
D03*
X39512Y22718D02*
D03*
X43750Y23150D02*
D03*
X43000Y22500D02*
D03*
X43250Y22850D02*
D03*
X41350Y23000D02*
D03*
X40000Y23350D02*
D03*
X35200Y39550D02*
D03*
X33550Y37950D02*
D03*
X32150Y43400D02*
D03*
Y45000D02*
D03*
Y44200D02*
D03*
X30432Y34183D02*
D03*
Y34983D02*
D03*
Y33383D02*
D03*
X18161Y32483D02*
D03*
Y33283D02*
D03*
Y31683D02*
D03*
X38098Y33651D02*
D03*
Y34451D02*
D03*
Y32851D02*
D03*
X45365Y32454D02*
D03*
Y33254D02*
D03*
Y31654D02*
D03*
X26951Y12981D02*
D03*
X26151D02*
D03*
X27750D02*
D03*
X34469Y12987D02*
D03*
X33669D02*
D03*
X35269D02*
D03*
X34800Y37900D02*
D03*
X38950Y41150D02*
D03*
X36800Y10850D02*
D03*
X37400Y11250D02*
D03*
X15310Y33320D02*
D03*
X15340Y32540D02*
D03*
X15350Y31690D02*
D03*
X27640Y33350D02*
D03*
X27670Y34150D02*
D03*
X27650Y35040D02*
D03*
X27590Y31450D02*
D03*
X27750Y31140D02*
D03*
X27880Y30810D02*
D03*
X26020Y29750D02*
D03*
X19530Y35920D02*
D03*
X22950Y21800D02*
D03*
X21500Y32990D02*
D03*
X21330Y31950D02*
D03*
X20210Y31770D02*
D03*
X19970Y31570D02*
D03*
X19710Y31400D02*
D03*
X19170Y34990D02*
D03*
X18760Y34070D02*
D03*
X22840Y29970D02*
D03*
X22850Y30760D02*
D03*
X23720Y32450D02*
D03*
X20490Y32920D02*
D03*
X19930Y32940D02*
D03*
X21540Y29970D02*
D03*
X23300Y33700D02*
D03*
X24100Y34600D02*
D03*
X24650Y32650D02*
D03*
X35650Y37900D02*
D03*
X36100Y36100D02*
D03*
X35300Y36350D02*
D03*
X34600Y36650D02*
D03*
X27300Y17400D02*
D03*
X33950Y11900D02*
D03*
X37650Y25100D02*
D03*
X36800Y24900D02*
D03*
X38450Y23600D02*
D03*
X38950D02*
D03*
X41000Y21600D02*
D03*
X37350Y19000D02*
D03*
X25400Y23900D02*
D03*
X25350Y39500D02*
D03*
X26600Y30230D02*
D03*
X26350Y29980D02*
D03*
X38150Y38850D02*
D03*
X21740Y32720D02*
D03*
X26600Y25900D02*
D03*
Y23900D02*
D03*
X26100Y24050D02*
D03*
Y25900D02*
D03*
X27150D02*
D03*
Y23850D02*
D03*
X34150Y39300D02*
D03*
X29100Y40050D02*
D03*
X30000D02*
D03*
X29150Y41100D02*
D03*
X31650Y39500D02*
D03*
X32300D02*
D03*
X32350Y41550D02*
D03*
Y42450D02*
D03*
X29150Y42100D02*
D03*
Y42950D02*
D03*
Y43950D02*
D03*
Y44950D02*
D03*
X32450Y44650D02*
D03*
X32300Y43800D02*
D03*
X30700Y44050D02*
D03*
Y44700D02*
D03*
Y43350D02*
D03*
X32400Y45650D02*
D03*
X31700D02*
D03*
X29900Y45700D02*
D03*
X29200D02*
D03*
X31100Y40000D02*
D03*
X35050Y45600D02*
D03*
X35750Y42450D02*
D03*
X30750Y24350D02*
D03*
X40000Y44300D02*
D03*
X38900Y39600D02*
D03*
X30800Y11050D02*
D03*
X30850Y11400D02*
D03*
D66*
X32300Y23150D02*
D03*
X36500Y39150D02*
D03*
X26050Y19000D02*
D03*
X24600Y20200D02*
D03*
X25450D02*
D03*
X34200Y37400D02*
D03*
X29750Y11210D02*
D03*
X27450Y19100D02*
D03*
X20600Y23500D02*
D03*
Y24150D02*
D03*
X30750Y25800D02*
D03*
Y26450D02*
D03*
X32300Y24750D02*
D03*
X29200Y23100D02*
D03*
Y24750D02*
D03*
X31730Y11180D02*
D03*
D82*
X27750Y12399D02*
D03*
X26924D02*
D03*
X26097D02*
D03*
Y14053D02*
D03*
X26924D02*
D03*
X27750D02*
D03*
X35269Y14058D02*
D03*
X34442D02*
D03*
X33615D02*
D03*
Y12405D02*
D03*
X34442D02*
D03*
X35269D02*
D03*
D83*
X31262Y10402D02*
D03*
X30238D02*
D03*
X31006D02*
D03*
X30750D02*
D03*
X30494D02*
D03*
D84*
X29589Y9300D02*
D03*
X31911D02*
D03*
D85*
X29766Y10206D02*
D03*
X31734D02*
D03*
D86*
X38258Y10769D02*
D03*
X36963Y10298D02*
D03*
D87*
X37550Y10700D02*
D03*
D88*
X44100Y40056D02*
D03*
D89*
Y39800D02*
D03*
Y39544D02*
D03*
X43509D02*
D03*
Y39800D02*
D03*
Y40056D02*
D03*
D90*
X39998Y43407D02*
D03*
D91*
X40294Y43870D02*
D03*
X40097D02*
D03*
X39900D02*
D03*
X39703D02*
D03*
Y42945D02*
D03*
X39900D02*
D03*
X40097D02*
D03*
X40294D02*
D03*
D92*
X28196Y35037D02*
D03*
Y34210D02*
D03*
Y33383D02*
D03*
X29850D02*
D03*
Y34210D02*
D03*
Y35037D02*
D03*
X37516Y34504D02*
D03*
Y33678D02*
D03*
Y32851D02*
D03*
X35862D02*
D03*
Y33678D02*
D03*
Y34504D02*
D03*
X43130Y33307D02*
D03*
Y32480D02*
D03*
Y31654D02*
D03*
X44783D02*
D03*
Y32480D02*
D03*
Y33307D02*
D03*
X17579Y33337D02*
D03*
Y32510D02*
D03*
Y31683D02*
D03*
X15925D02*
D03*
Y32510D02*
D03*
Y33337D02*
D03*
X29915Y45015D02*
D03*
Y44189D02*
D03*
Y43362D02*
D03*
X31568D02*
D03*
Y44189D02*
D03*
Y45015D02*
D03*
D93*
X27650Y18400D02*
X31725Y14325D01*
X26650Y18400D02*
X27650D01*
X26050Y19000D02*
X26650Y18400D01*
X20600Y24150D02*
X24600D01*
X20600Y23500D02*
Y24150D01*
X29100Y24750D02*
X29200Y24850D01*
X24600Y24150D02*
X25200Y24750D01*
X29100D01*
X31600Y24950D02*
X33850Y27200D01*
X40250D01*
X42133Y29083D01*
Y29451D01*
X29133D02*
X29200Y29383D01*
Y24950D02*
Y29383D01*
Y24850D02*
Y24950D01*
X31600D01*
X31730Y11180D02*
Y14300D01*
M02*
