M48
;Layer_Color=9474304
;FILE_FORMAT=2:4
INCH,TZ
;TYPE=PLATED
T1F00S00C0.0120
T2F00S00C0.0240
T3F00S00C0.0280
T4F00S00C0.0315
T5F00S00C0.0390
T6F00S00C0.0510
T7F00S00C0.0591
T8F00S00C0.1102
T9F00S00C0.1250
%
T01
X26151Y12981
X26951
X27750
X30000Y13550
X31000Y13400
Y12400
X30850Y11400
X30800Y11050
X33950Y11900
X33669Y12987
X34469
X35269
X36800Y10850
X37400Y11250
X31700Y14300
X35200Y18050
Y19000
Y19900
X36170Y21180
X37700Y21050
Y20700
X38624Y20551
X38200Y20100
X37350Y19000
X39250Y18950
X40250
X39845Y21175
X39245
Y21775
X39845
X39512Y22718
X40000Y23350
X38950Y23600
X38450
X38050Y22700
X38600Y22450
X37520Y22380
X37650Y25100
X36800Y24900
X40250Y27200
X41950
X43450Y28200
X43750Y23150
X43250Y22850
X43000Y22500
X42000Y23500
X41350Y23000
X41000Y21600
X41300Y20900
X43000Y20500
X33000Y21500
X31650Y23650
X30750Y24350
X29850Y23650
X27150Y23850
X26600Y23900
X26100Y24050
X25400Y23900
X25200Y23250
X24430Y23130
X23566Y23272
X23016
Y22722
X23566
X23300Y21800
X22950
X22550
X22500Y22250
X21950Y21250
X21350Y21600
X21550Y18250
X23600Y17850
X23550Y17100
X23900Y16500
X25700
X26300Y16900
X25756Y17476
Y17926
X25256
Y17476
X27300Y17400
Y17900
X28900Y16450
X27300Y21500
X26900
X26550
X26600Y25900
X26100
X27150
X26600Y30230
X26350Y29980
X26020Y29750
X27880Y30810
X27750Y31140
X22850Y30760
X22399Y30861
X21799
X21540Y29970
X22840
X21600Y25300
X16500Y24000
X16550Y27050
X15350Y31690
X15340Y32540
X15310Y33320
X18161Y33283
Y32483
Y31683
X19710Y31400
X19970Y31570
X20210Y31770
X21330Y31950
X21799Y31761
Y31311
X22399
Y31761
Y32261
X21799
X21740Y32720
X21500Y32990
X20490Y32920
X19930Y32940
X18760Y34070
X19170Y34990
X19530Y35920
X24100Y34600
X23300Y33700
X23720Y32450
X24650Y32650
X27640Y33350
X27670Y34150
X27650Y35040
X30432Y34983
Y34183
Y33383
X29750Y37400
X28700Y38850
X28500Y39150
X29100Y40050
X30000
X31100Y40000
X29150Y41100
Y42100
X28550Y41950
X29150Y42950
Y43950
Y44950
X29200Y45700
X29900
X30700Y44700
Y44050
Y43350
X27400Y42550
X27000Y41550
X26200Y42200
X26350Y43800
X25300Y43050
X23100Y43038
Y42200
X22950Y40550
Y40050
X25350Y39500
X25850Y39050
X26600Y40450
X23100Y45100
X27590Y31450
X32000Y36550
X34600Y36650
X35300Y36350
X35400Y36950
X36450Y36900
X36950
X36100Y36100
X35650Y37900
X34800
X33550Y37950
X34150Y39300
X35200Y39550
X35600Y39850
X36700
X37050Y39600
X36700Y40650
X36750Y41650
Y42800
X35750Y42450
X35250Y43200
X35650Y44050
X36700Y44800
X36200Y45400
X35050Y45600
X32400Y45650
X31700
X32150Y45000
X32450Y44650
X32150Y44200
X32300Y43800
X32150Y43400
X32350Y42450
Y41550
X33000Y42000
X34100Y41600
X34450Y40900
X35700
X35350Y41300
X34100Y43500
X33050Y44250
X32700Y40250
X33000Y39900
X32300Y39500
X31650
X38150Y38850
X38900Y39600
X38950Y41150
X39800Y41350
X39550Y42250
X39100Y42200
X38950Y42800
X39300Y43150
X39200Y43600
X39700Y44300
X40000
X40550Y43850
X40300Y42450
X40000Y42650
X39150Y45100
X40850Y39600
X41800Y39850
X43050Y39800
X43450Y40350
X44150
X44100Y39250
X43450Y39150
X45365Y33254
Y32454
Y31654
X38098Y32851
Y33651
Y34451
T02
X24600Y20200
X25450
X27450Y19100
X34200Y37400
X36500Y39150
T03
X29750Y11210
X31730Y11180
X32300Y23150
Y24750
X30750Y25800
Y26450
X29200Y24750
Y23100
X26050Y19000
X20600Y23500
Y24150
T04
X33572Y10277
X34350Y10400
X35128Y10523
X35133Y29451
X34133
X33133
X32133
X36133
X37133
X38133
X39133
X40133
X41133
X42133
X43133
X31133
X30133
X29133
X28133
T05
X26466Y10457
X28199Y10089
T06
X26189Y11522
X28885Y10949
T07
X32756Y10147
X35944Y10653
T08
X45283Y29451
X15786
T09
X23000Y13000
X38000
X16000Y37000
X45000
M30
