G04 Layer_Color=8421504*
%FSLAX24Y24*%
%MOIN*%
G70*
G01*
G75*
%ADD10R,0.0866X0.0236*%
%ADD12R,0.0236X0.0197*%
%ADD13R,0.0315X0.0315*%
%ADD14R,0.0472X0.0472*%
%ADD15R,0.0630X0.0591*%
%ADD16R,0.0197X0.0236*%
%ADD17R,0.0216X0.0472*%
%ADD18R,0.0433X0.0394*%
%ADD19R,0.0180X0.0300*%
%ADD20R,0.2953X0.0709*%
%ADD21R,0.0394X0.0433*%
%ADD22R,0.0315X0.0394*%
%ADD23R,0.0300X0.0180*%
%ADD24R,0.1339X0.0630*%
%ADD25R,0.1811X0.0394*%
%ADD26R,0.0287X0.0118*%
%ADD27R,0.0118X0.0287*%
%ADD28R,0.0984X0.0984*%
%ADD29R,0.0945X0.0630*%
%ADD30R,0.0335X0.0138*%
%ADD31R,0.0138X0.0335*%
%ADD32R,0.1063X0.1063*%
%ADD33R,0.0610X0.0098*%
%ADD34R,0.1181X0.1984*%
%ADD35R,0.0531X0.0177*%
%ADD36R,0.0531X0.0098*%
%ADD37R,0.1280X0.0847*%
%ADD38R,0.0374X0.0847*%
%ADD39R,0.0500X0.0250*%
G04:AMPARAMS|DCode=40|XSize=27.6mil|YSize=11mil|CornerRadius=2.8mil|HoleSize=0mil|Usage=FLASHONLY|Rotation=0.000|XOffset=0mil|YOffset=0mil|HoleType=Round|Shape=RoundedRectangle|*
%AMROUNDEDRECTD40*
21,1,0.0276,0.0055,0,0,0.0*
21,1,0.0221,0.0110,0,0,0.0*
1,1,0.0055,0.0110,-0.0028*
1,1,0.0055,-0.0110,-0.0028*
1,1,0.0055,-0.0110,0.0028*
1,1,0.0055,0.0110,0.0028*
%
%ADD40ROUNDEDRECTD40*%
%ADD41R,0.0276X0.0110*%
G04:AMPARAMS|DCode=42|XSize=11mil|YSize=27.6mil|CornerRadius=2.8mil|HoleSize=0mil|Usage=FLASHONLY|Rotation=0.000|XOffset=0mil|YOffset=0mil|HoleType=Round|Shape=RoundedRectangle|*
%AMROUNDEDRECTD42*
21,1,0.0110,0.0221,0,0,0.0*
21,1,0.0055,0.0276,0,0,0.0*
1,1,0.0055,0.0028,-0.0110*
1,1,0.0055,-0.0028,-0.0110*
1,1,0.0055,-0.0028,0.0110*
1,1,0.0055,0.0028,0.0110*
%
%ADD42ROUNDEDRECTD42*%
%ADD43R,0.0110X0.0276*%
%ADD44R,0.1260X0.1260*%
%ADD45R,0.0394X0.0551*%
%ADD46R,0.0787X0.0315*%
G04:AMPARAMS|DCode=47|XSize=31.5mil|YSize=31.5mil|CornerRadius=15.8mil|HoleSize=0mil|Usage=FLASHONLY|Rotation=90.000|XOffset=0mil|YOffset=0mil|HoleType=Round|Shape=RoundedRectangle|*
%AMROUNDEDRECTD47*
21,1,0.0315,0.0000,0,0,90.0*
21,1,0.0000,0.0315,0,0,90.0*
1,1,0.0315,0.0000,0.0000*
1,1,0.0315,0.0000,0.0000*
1,1,0.0315,0.0000,0.0000*
1,1,0.0315,0.0000,0.0000*
%
%ADD47ROUNDEDRECTD47*%
G04:AMPARAMS|DCode=48|XSize=31.5mil|YSize=31.5mil|CornerRadius=15.8mil|HoleSize=0mil|Usage=FLASHONLY|Rotation=180.000|XOffset=0mil|YOffset=0mil|HoleType=Round|Shape=RoundedRectangle|*
%AMROUNDEDRECTD48*
21,1,0.0315,0.0000,0,0,180.0*
21,1,0.0000,0.0315,0,0,180.0*
1,1,0.0315,0.0000,0.0000*
1,1,0.0315,0.0000,0.0000*
1,1,0.0315,0.0000,0.0000*
1,1,0.0315,0.0000,0.0000*
%
%ADD48ROUNDEDRECTD48*%
G04:AMPARAMS|DCode=49|XSize=35.4mil|YSize=65mil|CornerRadius=17.7mil|HoleSize=0mil|Usage=FLASHONLY|Rotation=270.000|XOffset=0mil|YOffset=0mil|HoleType=Round|Shape=RoundedRectangle|*
%AMROUNDEDRECTD49*
21,1,0.0354,0.0296,0,0,270.0*
21,1,0.0000,0.0650,0,0,270.0*
1,1,0.0354,-0.0148,0.0000*
1,1,0.0354,-0.0148,0.0000*
1,1,0.0354,0.0148,0.0000*
1,1,0.0354,0.0148,0.0000*
%
%ADD49ROUNDEDRECTD49*%
G04:AMPARAMS|DCode=50|XSize=35.4mil|YSize=65mil|CornerRadius=17.7mil|HoleSize=0mil|Usage=FLASHONLY|Rotation=0.000|XOffset=0mil|YOffset=0mil|HoleType=Round|Shape=RoundedRectangle|*
%AMROUNDEDRECTD50*
21,1,0.0354,0.0296,0,0,0.0*
21,1,0.0000,0.0650,0,0,0.0*
1,1,0.0354,0.0000,-0.0148*
1,1,0.0354,0.0000,-0.0148*
1,1,0.0354,0.0000,0.0148*
1,1,0.0354,0.0000,0.0148*
%
%ADD50ROUNDEDRECTD50*%
D10*
X25674Y41550D02*
D03*
Y41050D02*
D03*
Y40550D02*
D03*
Y40050D02*
D03*
X23626D02*
D03*
Y40550D02*
D03*
Y41050D02*
D03*
Y41550D02*
D03*
D12*
X26453Y39550D02*
D03*
X26847D02*
D03*
D13*
X35585Y19905D02*
D03*
X36175D02*
D03*
X36171Y18979D02*
D03*
X35580D02*
D03*
X36175Y18053D02*
D03*
X35585D02*
D03*
D14*
X40713Y27200D02*
D03*
X41500D02*
D03*
D15*
X41106Y28204D02*
D03*
D16*
X22250Y17947D02*
D03*
Y17553D02*
D03*
X21550Y17947D02*
D03*
Y17553D02*
D03*
D17*
X30626Y11938D02*
D03*
X31000D02*
D03*
X31374D02*
D03*
Y12962D02*
D03*
X31000D02*
D03*
X30626D02*
D03*
D18*
X26600Y42885D02*
D03*
Y42215D02*
D03*
X22700Y42885D02*
D03*
Y42215D02*
D03*
X24600Y18965D02*
D03*
Y19635D02*
D03*
X25450Y18965D02*
D03*
Y19635D02*
D03*
X21620Y24205D02*
D03*
Y24875D02*
D03*
X23300Y20565D02*
D03*
Y21235D02*
D03*
X22450Y20565D02*
D03*
Y21235D02*
D03*
X39200Y44685D02*
D03*
Y44015D02*
D03*
X35400Y44915D02*
D03*
Y45585D02*
D03*
X24100Y33465D02*
D03*
Y34135D02*
D03*
X32300Y24235D02*
D03*
Y23565D02*
D03*
X29200Y24235D02*
D03*
Y23565D02*
D03*
X35400Y41765D02*
D03*
Y42435D02*
D03*
X26600Y40865D02*
D03*
Y41535D02*
D03*
X35650Y38985D02*
D03*
Y38315D02*
D03*
X34800Y38985D02*
D03*
Y38315D02*
D03*
D19*
X24280Y17350D02*
D03*
X23920D02*
D03*
X26830Y38550D02*
D03*
X26470D02*
D03*
X26830Y39050D02*
D03*
X26470D02*
D03*
X39820Y43450D02*
D03*
X40180D02*
D03*
X24280Y16850D02*
D03*
X23920D02*
D03*
Y17850D02*
D03*
X24280D02*
D03*
X26670Y17400D02*
D03*
X27030D02*
D03*
X26670Y17900D02*
D03*
X27030D02*
D03*
X20290Y32420D02*
D03*
X19930D02*
D03*
X24020Y32620D02*
D03*
X24380D02*
D03*
X19929Y33429D02*
D03*
X20289D02*
D03*
X39820Y43950D02*
D03*
X40180D02*
D03*
Y42950D02*
D03*
X39820D02*
D03*
X40330Y20000D02*
D03*
X39970D02*
D03*
X36745Y18976D02*
D03*
X37105D02*
D03*
X36750Y18050D02*
D03*
X37110D02*
D03*
X36750Y19903D02*
D03*
X37110D02*
D03*
X38470Y20100D02*
D03*
X38830D02*
D03*
X36800Y21180D02*
D03*
X36440D02*
D03*
D20*
X19300Y22650D02*
D03*
Y20445D02*
D03*
D21*
X42365Y28200D02*
D03*
X43035D02*
D03*
X26765Y18600D02*
D03*
X27435D02*
D03*
X34715Y37400D02*
D03*
X35385D02*
D03*
X39115Y41800D02*
D03*
X39785D02*
D03*
D22*
X24800Y23788D02*
D03*
Y24812D02*
D03*
X36800Y23388D02*
D03*
Y24412D02*
D03*
D23*
X26750Y13920D02*
D03*
Y14280D02*
D03*
X26000Y13920D02*
D03*
Y14280D02*
D03*
X25400Y24170D02*
D03*
Y24530D02*
D03*
X23750Y24680D02*
D03*
Y24320D02*
D03*
X23100D02*
D03*
Y24680D02*
D03*
X24800Y22920D02*
D03*
Y23280D02*
D03*
Y22170D02*
D03*
Y22530D02*
D03*
X41450Y40230D02*
D03*
Y39870D02*
D03*
X40850Y40230D02*
D03*
Y39870D02*
D03*
X43450Y39780D02*
D03*
Y39420D02*
D03*
X31650Y24330D02*
D03*
Y23970D02*
D03*
X29850Y24330D02*
D03*
Y23970D02*
D03*
X38450Y23350D02*
D03*
Y22990D02*
D03*
X39500Y19220D02*
D03*
Y19580D02*
D03*
X37870Y22050D02*
D03*
Y22410D02*
D03*
X38050Y21080D02*
D03*
Y20720D02*
D03*
X38950Y22990D02*
D03*
Y23350D02*
D03*
X35350Y40220D02*
D03*
Y40580D02*
D03*
X40000Y19220D02*
D03*
Y19580D02*
D03*
X40500D02*
D03*
Y19220D02*
D03*
X39000Y19580D02*
D03*
Y19220D02*
D03*
D24*
X29341Y19261D02*
D03*
Y21939D02*
D03*
D25*
X27293Y20994D02*
D03*
Y20206D02*
D03*
D26*
X24726Y18094D02*
D03*
Y17897D02*
D03*
Y17700D02*
D03*
Y17503D02*
D03*
Y17306D02*
D03*
X26274D02*
D03*
Y17503D02*
D03*
Y17700D02*
D03*
Y17897D02*
D03*
Y18094D02*
D03*
D27*
X25106Y16926D02*
D03*
X25303D02*
D03*
X25500D02*
D03*
X25697D02*
D03*
X25894D02*
D03*
Y18474D02*
D03*
X25697D02*
D03*
X25500D02*
D03*
X25303D02*
D03*
X25106D02*
D03*
D28*
X25500Y17700D02*
D03*
D29*
X21600Y23341D02*
D03*
Y22159D02*
D03*
X36700Y37459D02*
D03*
Y38641D02*
D03*
D30*
X22522Y23384D02*
D03*
Y23128D02*
D03*
Y22872D02*
D03*
Y22616D02*
D03*
X24077D02*
D03*
Y22872D02*
D03*
Y23128D02*
D03*
Y23384D02*
D03*
D31*
X22916Y22222D02*
D03*
X23172D02*
D03*
X23428D02*
D03*
X23684D02*
D03*
Y23777D02*
D03*
X23428D02*
D03*
X23172D02*
D03*
X22916D02*
D03*
D32*
X23300Y23000D02*
D03*
D33*
X38405Y45085D02*
D03*
Y44830D02*
D03*
Y44574D02*
D03*
Y44318D02*
D03*
Y44062D02*
D03*
Y43806D02*
D03*
Y43550D02*
D03*
Y43294D02*
D03*
Y43038D02*
D03*
Y42782D02*
D03*
X36200D02*
D03*
Y43038D02*
D03*
Y43294D02*
D03*
Y43550D02*
D03*
Y43806D02*
D03*
Y44062D02*
D03*
Y44318D02*
D03*
Y44574D02*
D03*
Y44830D02*
D03*
Y45085D02*
D03*
X25805Y42782D02*
D03*
Y43038D02*
D03*
Y43294D02*
D03*
Y43550D02*
D03*
Y43806D02*
D03*
Y44062D02*
D03*
Y44318D02*
D03*
Y44574D02*
D03*
Y44830D02*
D03*
Y45086D02*
D03*
X23600D02*
D03*
Y44830D02*
D03*
Y44574D02*
D03*
Y44318D02*
D03*
Y44062D02*
D03*
Y43806D02*
D03*
Y43550D02*
D03*
Y43294D02*
D03*
Y43038D02*
D03*
Y42782D02*
D03*
X38400Y41924D02*
D03*
Y41668D02*
D03*
Y41412D02*
D03*
Y41156D02*
D03*
Y40900D02*
D03*
Y40644D02*
D03*
Y40388D02*
D03*
Y40132D02*
D03*
Y39876D02*
D03*
Y39620D02*
D03*
X36195D02*
D03*
Y39876D02*
D03*
Y40132D02*
D03*
Y40388D02*
D03*
Y40644D02*
D03*
Y40900D02*
D03*
Y41156D02*
D03*
Y41412D02*
D03*
Y41668D02*
D03*
Y41924D02*
D03*
D34*
X22100Y31550D02*
D03*
D35*
X23301Y33361D02*
D03*
Y29739D02*
D03*
X20899D02*
D03*
Y33361D02*
D03*
D36*
X23301Y33125D02*
D03*
Y32928D02*
D03*
Y32731D02*
D03*
Y32534D02*
D03*
Y32337D02*
D03*
Y32141D02*
D03*
Y31944D02*
D03*
Y31747D02*
D03*
Y31550D02*
D03*
Y31353D02*
D03*
Y31156D02*
D03*
Y30959D02*
D03*
Y30763D02*
D03*
Y30566D02*
D03*
Y30369D02*
D03*
Y30172D02*
D03*
Y29975D02*
D03*
X20899D02*
D03*
Y30172D02*
D03*
Y30369D02*
D03*
Y30566D02*
D03*
Y30763D02*
D03*
Y30959D02*
D03*
Y31156D02*
D03*
Y31353D02*
D03*
Y31550D02*
D03*
Y31747D02*
D03*
Y31944D02*
D03*
Y32141D02*
D03*
Y32337D02*
D03*
Y32534D02*
D03*
Y32731D02*
D03*
Y32928D02*
D03*
Y33125D02*
D03*
D37*
X30750Y27334D02*
D03*
D38*
Y25050D02*
D03*
X29845D02*
D03*
X31655D02*
D03*
D39*
X37050Y22360D02*
D03*
X36190D02*
D03*
Y21700D02*
D03*
X37050D02*
D03*
D40*
X38620Y22164D02*
D03*
Y20786D02*
D03*
X40470D02*
D03*
Y22164D02*
D03*
D41*
X38620Y21967D02*
D03*
Y21770D02*
D03*
Y21573D02*
D03*
Y21376D02*
D03*
Y21179D02*
D03*
Y20983D02*
D03*
X40470D02*
D03*
Y21179D02*
D03*
Y21376D02*
D03*
Y21573D02*
D03*
Y21770D02*
D03*
Y21967D02*
D03*
D42*
X38856Y20550D02*
D03*
X40234D02*
D03*
Y22400D02*
D03*
X38856D02*
D03*
D43*
X39053Y20550D02*
D03*
X39250D02*
D03*
X39447D02*
D03*
X39644D02*
D03*
X39841D02*
D03*
X40037Y22400D02*
D03*
X39841D02*
D03*
X39644D02*
D03*
X39447D02*
D03*
X39250D02*
D03*
X39053D02*
D03*
D44*
X39545Y21475D02*
D03*
D45*
X41650Y19517D02*
D03*
X41276Y20383D02*
D03*
X42024D02*
D03*
D46*
X37650Y24727D02*
D03*
Y23073D02*
D03*
D47*
X33000Y45150D02*
D03*
Y45623D02*
D03*
Y46095D02*
D03*
Y46567D02*
D03*
X28512D02*
D03*
Y46095D02*
D03*
Y45623D02*
D03*
Y45150D02*
D03*
X31362Y41134D02*
D03*
Y41843D02*
D03*
Y42552D02*
D03*
Y43260D02*
D03*
Y44678D02*
D03*
X31031Y45386D02*
D03*
X30756Y41134D02*
D03*
Y41843D02*
D03*
Y42552D02*
D03*
X30150Y41134D02*
D03*
Y41843D02*
D03*
Y42552D02*
D03*
Y43260D02*
D03*
Y44678D02*
D03*
X30480Y45386D02*
D03*
X33000Y43532D02*
D03*
X28512D02*
D03*
X33000Y42532D02*
D03*
X28512D02*
D03*
X33000Y41532D02*
D03*
X28512D02*
D03*
X33000Y40532D02*
D03*
X28512D02*
D03*
X33000Y39532D02*
D03*
X28512D02*
D03*
X33000Y38532D02*
D03*
X28512D02*
D03*
D48*
X32409Y46272D02*
D03*
X31937D02*
D03*
X31465D02*
D03*
X30992D02*
D03*
X30520D02*
D03*
X30047D02*
D03*
X29575D02*
D03*
X29102D02*
D03*
Y38831D02*
D03*
X29575D02*
D03*
X30047D02*
D03*
X30520D02*
D03*
X30992D02*
D03*
X31465D02*
D03*
X31937D02*
D03*
X32409D02*
D03*
D49*
X33600Y38537D02*
D03*
Y39007D02*
D03*
Y39477D02*
D03*
Y39957D02*
D03*
Y40427D02*
D03*
Y40897D02*
D03*
Y41371D02*
D03*
Y41843D02*
D03*
Y42315D02*
D03*
Y42788D02*
D03*
Y43260D02*
D03*
Y43733D02*
D03*
Y44205D02*
D03*
Y44678D02*
D03*
Y45150D02*
D03*
Y45623D02*
D03*
Y46097D02*
D03*
Y46567D02*
D03*
X27911D02*
D03*
Y46095D02*
D03*
Y45623D02*
D03*
Y45150D02*
D03*
Y44678D02*
D03*
Y44205D02*
D03*
Y43733D02*
D03*
Y43260D02*
D03*
Y42788D02*
D03*
Y42315D02*
D03*
Y41843D02*
D03*
Y41371D02*
D03*
X27921Y40898D02*
D03*
Y40426D02*
D03*
Y39953D02*
D03*
Y39481D02*
D03*
Y39008D02*
D03*
Y38536D02*
D03*
D50*
X32410Y46876D02*
D03*
X31937D02*
D03*
X31465D02*
D03*
X30992D02*
D03*
X30520D02*
D03*
X30050D02*
D03*
X29575D02*
D03*
X29102D02*
D03*
Y38226D02*
D03*
X29575D02*
D03*
X30047D02*
D03*
X30520D02*
D03*
X30992D02*
D03*
X31465D02*
D03*
X31937D02*
D03*
X32409D02*
D03*
M02*
