G04 Layer_Color=128*
%FSLAX24Y24*%
%MOIN*%
G70*
G01*
G75*
%ADD82R,0.0630X0.0669*%
%ADD83R,0.0177X0.0669*%
%ADD84R,0.0935X0.0748*%
%ADD85R,0.0581X0.0827*%
G04:AMPARAMS|DCode=86|XSize=39.4mil|YSize=59.1mil|CornerRadius=0mil|HoleSize=0mil|Usage=FLASHONLY|Rotation=290.000|XOffset=0mil|YOffset=0mil|HoleType=Round|Shape=Rectangle|*
%AMROTATEDRECTD86*
4,1,4,-0.0345,0.0084,0.0210,0.0286,0.0345,-0.0084,-0.0210,-0.0286,-0.0345,0.0084,0.0*
%
%ADD86ROTATEDRECTD86*%

%ADD87P,0.0557X4X335.0*%
%ADD88R,0.0472X0.0138*%
G04:AMPARAMS|DCode=89|XSize=47.2mil|YSize=13.8mil|CornerRadius=3.4mil|HoleSize=0mil|Usage=FLASHONLY|Rotation=180.000|XOffset=0mil|YOffset=0mil|HoleType=Round|Shape=RoundedRectangle|*
%AMROUNDEDRECTD89*
21,1,0.0472,0.0069,0,0,180.0*
21,1,0.0404,0.0138,0,0,180.0*
1,1,0.0069,-0.0202,0.0034*
1,1,0.0069,0.0202,0.0034*
1,1,0.0069,0.0202,-0.0034*
1,1,0.0069,-0.0202,-0.0034*
%
%ADD89ROUNDEDRECTD89*%
%ADD90R,0.0669X0.0394*%
%ADD91R,0.0098X0.0216*%
%ADD92R,0.0669X0.0630*%
D82*
X27750Y12399D02*
D03*
X26924D02*
D03*
X26097D02*
D03*
Y14053D02*
D03*
X26924D02*
D03*
X27750D02*
D03*
X35269Y14058D02*
D03*
X34442D02*
D03*
X33615D02*
D03*
Y12405D02*
D03*
X34442D02*
D03*
X35269D02*
D03*
D83*
X31262Y10402D02*
D03*
X30238D02*
D03*
X31006D02*
D03*
X30750D02*
D03*
X30494D02*
D03*
D84*
X29589Y9300D02*
D03*
X31911D02*
D03*
D85*
X29766Y10206D02*
D03*
X31734D02*
D03*
D86*
X38258Y10769D02*
D03*
X36963Y10298D02*
D03*
D87*
X37550Y10700D02*
D03*
D88*
X44100Y40056D02*
D03*
D89*
Y39800D02*
D03*
Y39544D02*
D03*
X43509D02*
D03*
Y39800D02*
D03*
Y40056D02*
D03*
D90*
X39998Y43407D02*
D03*
D91*
X40294Y43870D02*
D03*
X40097D02*
D03*
X39900D02*
D03*
X39703D02*
D03*
Y42945D02*
D03*
X39900D02*
D03*
X40097D02*
D03*
X40294D02*
D03*
D92*
X28196Y35037D02*
D03*
Y34210D02*
D03*
Y33383D02*
D03*
X29850D02*
D03*
Y34210D02*
D03*
Y35037D02*
D03*
X37516Y34504D02*
D03*
Y33678D02*
D03*
Y32851D02*
D03*
X35862D02*
D03*
Y33678D02*
D03*
Y34504D02*
D03*
X43130Y33307D02*
D03*
Y32480D02*
D03*
Y31654D02*
D03*
X44783D02*
D03*
Y32480D02*
D03*
Y33307D02*
D03*
X17579Y33337D02*
D03*
Y32510D02*
D03*
Y31683D02*
D03*
X15925D02*
D03*
Y32510D02*
D03*
Y33337D02*
D03*
X29915Y45015D02*
D03*
Y44189D02*
D03*
Y43362D02*
D03*
X31568D02*
D03*
Y44189D02*
D03*
Y45015D02*
D03*
M02*
